<svg width="34" height="34" viewBox="0 0 34 34" fill="none" xmlns="http://www.w3.org/2000/svg">
<mask id="mask0_9_132" style="mask-type:alpha" maskUnits="userSpaceOnUse" x="0" y="0" width="34" height="34">
<rect width="34" height="34" fill="#D9D9D9"/>
</mask>
<g mask="url(#mask0_9_132)">
<path d="M5.66667 9.91707C5.26528 9.91707 4.92882 9.78131 4.65729 9.50978C4.38576 9.23825 4.25 8.9018 4.25 8.50041C4.25 8.09902 4.38576 7.76256 4.65729 7.49103C4.92882 7.2195 5.26528 7.08374 5.66667 7.08374H28.3333C28.7347 7.08374 29.0712 7.2195 29.3427 7.49103C29.6142 7.76256 29.75 8.09902 29.75 8.50041C29.75 8.9018 29.6142 9.23825 29.3427 9.50978C29.0712 9.78131 28.7347 9.91707 28.3333 9.91707H5.66667ZM5.66667 26.9171C5.26528 26.9171 4.92882 26.7813 4.65729 26.5098C4.38576 26.2383 4.25 25.9018 4.25 25.5004C4.25 25.099 4.38576 24.7626 4.65729 24.491C4.92882 24.2195 5.26528 24.0837 5.66667 24.0837H28.3333C28.7347 24.0837 29.0712 24.2195 29.3427 24.491C29.6142 24.7626 29.75 25.099 29.75 25.5004C29.75 25.9018 29.6142 26.2383 29.3427 26.5098C29.0712 26.7813 28.7347 26.9171 28.3333 26.9171H5.66667ZM5.66667 18.4171C5.26528 18.4171 4.92882 18.2813 4.65729 18.0098C4.38576 17.7383 4.25 17.4018 4.25 17.0004C4.25 16.599 4.38576 16.2626 4.65729 15.991C4.92882 15.7195 5.26528 15.5837 5.66667 15.5837H28.3333C28.7347 15.5837 29.0712 15.7195 29.3427 15.991C29.6142 16.2626 29.75 16.599 29.75 17.0004C29.75 17.4018 29.6142 17.7383 29.3427 18.0098C29.0712 18.2813 28.7347 18.4171 28.3333 18.4171H5.66667Z" fill="#1C1B1F"/>
</g>
</svg>
