<svg width="34" height="34" viewBox="0 0 34 34" fill="none" xmlns="http://www.w3.org/2000/svg">
<mask id="mask0_9_129" style="mask-type:alpha" maskUnits="userSpaceOnUse" x="0" y="0" width="34" height="34">
<rect width="34" height="34" fill="#D9D9D9"/>
</mask>
<g mask="url(#mask0_9_129)">
<path d="M16.9992 31.1671C15.0631 31.1671 13.2332 30.7952 11.5096 30.0514C9.78599 29.3077 8.28078 28.2924 6.99398 27.0056C5.70717 25.7188 4.69189 24.2136 3.94814 22.49C3.20439 20.7664 2.83252 18.9365 2.83252 17.0004C2.83252 15.0407 3.20439 13.2049 3.94814 11.4931C4.69189 9.78131 5.70717 8.282 6.99398 6.9952C8.28078 5.70839 9.78599 4.69312 11.5096 3.94937C13.2332 3.20562 15.0631 2.83374 16.9992 2.83374C18.9589 2.83374 20.7947 3.20562 22.5065 3.94937C24.2183 4.69312 25.7176 5.70839 27.0044 6.9952C28.2912 8.282 29.3065 9.78131 30.0502 11.4931C30.794 13.2049 31.1658 15.0407 31.1658 17.0004C31.1658 18.9365 30.794 20.7664 30.0502 22.49C29.3065 24.2136 28.2912 25.7188 27.0044 27.0056C25.7176 28.2924 24.2183 29.3077 22.5065 30.0514C20.7947 30.7952 18.9589 31.1671 16.9992 31.1671ZM16.9992 28.2629C17.6131 27.4129 18.1443 26.5275 18.5929 25.6067C19.0415 24.6858 19.4075 23.706 19.6909 22.6671H14.3075C14.5909 23.706 14.9568 24.6858 15.4054 25.6067C15.854 26.5275 16.3853 27.4129 16.9992 28.2629ZM13.3159 27.6962C12.8909 26.9171 12.519 26.1084 12.2002 25.2702C11.8815 24.432 11.6159 23.5643 11.4034 22.6671H7.22419C7.90891 23.8476 8.76481 24.8747 9.79189 25.7483C10.819 26.6219 11.9936 27.2712 13.3159 27.6962ZM20.6825 27.6962C22.0047 27.2712 23.1794 26.6219 24.2065 25.7483C25.2336 24.8747 26.0895 23.8476 26.7742 22.6671H22.595C22.3825 23.5643 22.1169 24.432 21.7981 25.2702C21.4794 26.1084 21.1075 26.9171 20.6825 27.6962ZM6.02002 19.8337H10.8367C10.7659 19.3615 10.7127 18.8952 10.6773 18.4348C10.6419 17.9744 10.6242 17.4962 10.6242 17.0004C10.6242 16.5046 10.6419 16.0264 10.6773 15.566C10.7127 15.1056 10.7659 14.6393 10.8367 14.1671H6.02002C5.90196 14.6393 5.81342 15.1056 5.75439 15.566C5.69537 16.0264 5.66585 16.5046 5.66585 17.0004C5.66585 17.4962 5.69537 17.9744 5.75439 18.4348C5.81342 18.8952 5.90196 19.3615 6.02002 19.8337ZM13.67 19.8337H20.3284C20.3992 19.3615 20.4523 18.8952 20.4877 18.4348C20.5231 17.9744 20.5409 17.4962 20.5409 17.0004C20.5409 16.5046 20.5231 16.0264 20.4877 15.566C20.4523 15.1056 20.3992 14.6393 20.3284 14.1671H13.67C13.5992 14.6393 13.5461 15.1056 13.5106 15.566C13.4752 16.0264 13.4575 16.5046 13.4575 17.0004C13.4575 17.4962 13.4752 17.9744 13.5106 18.4348C13.5461 18.8952 13.5992 19.3615 13.67 19.8337ZM23.1617 19.8337H27.9783C28.0964 19.3615 28.1849 18.8952 28.244 18.4348C28.303 17.9744 28.3325 17.4962 28.3325 17.0004C28.3325 16.5046 28.303 16.0264 28.244 15.566C28.1849 15.1056 28.0964 14.6393 27.9783 14.1671H23.1617C23.2325 14.6393 23.2856 15.1056 23.3211 15.566C23.3565 16.0264 23.3742 16.5046 23.3742 17.0004C23.3742 17.4962 23.3565 17.9744 23.3211 18.4348C23.2856 18.8952 23.2325 19.3615 23.1617 19.8337ZM22.595 11.3337H26.7742C26.0895 10.1532 25.2336 9.1261 24.2065 8.25249C23.1794 7.37888 22.0047 6.72957 20.6825 6.30457C21.1075 7.08374 21.4794 7.89242 21.7981 8.73061C22.1169 9.56881 22.3825 10.4365 22.595 11.3337ZM14.3075 11.3337H19.6909C19.4075 10.2949 19.0415 9.31499 18.5929 8.39416C18.1443 7.47332 17.6131 6.58791 16.9992 5.73791C16.3853 6.58791 15.854 7.47332 15.4054 8.39416C14.9568 9.31499 14.5909 10.2949 14.3075 11.3337ZM7.22419 11.3337H11.4034C11.6159 10.4365 11.8815 9.56881 12.2002 8.73061C12.519 7.89242 12.8909 7.08374 13.3159 6.30457C11.9936 6.72957 10.819 7.37888 9.79189 8.25249C8.76481 9.1261 7.90891 10.1532 7.22419 11.3337Z" fill="#1C1B1F"/>
</g>
</svg>
