<svg width="80" height="30" viewBox="0 0 80 30" fill="none" xmlns="http://www.w3.org/2000/svg">
<g clip-path="url(#clip0_40_27801)">
<path d="M28.4601 14.9632H24.2104L23.0246 18.1892H27.2754L28.4601 14.9632ZM19.8804 10.8049L15.0919 23.8199H19.1814L23.9701 10.8051L19.8804 10.8049ZM12.9361 10.4766C11.1303 10.4766 9.57655 11.2371 8.18007 12.5518L11.4184 3.62288H7.33156L0 23.8201H4.08594L6.34821 17.5969C8.13762 13.5877 9.85149 13.1059 10.5814 13.1059C11.6765 13.1059 12.8598 13.5988 11.5383 17.5739L9.22257 23.8201H13.3114L15.6428 17.5358C17.5395 12.7891 15.4149 10.4766 12.9359 10.4766M37.6644 18.0061C35.4497 21.9619 33.4438 22.0959 31.7156 22.0959C31.7156 22.0959 31.9981 20.822 33.229 17.9369C35.0746 13.6137 36.6071 13.1062 37.3608 13.1062C38.1128 13.1062 40.0958 13.6521 37.6644 18.0061ZM39.7102 10.4764C37.9784 10.4764 36.6036 11.1871 35.3256 12.4061L35.9276 10.8051H31.839L24.6305 30H28.7187L31.0243 23.849C31.444 23.8839 31.8792 23.9113 32.3484 23.9113C35.3532 23.9113 39.8912 22.5041 42.1627 17.5357C44.287 12.8885 42.1873 10.4764 39.7102 10.4764ZM76.1978 16.6414C74.8744 15.2998 73.9133 14.4937 73.9743 13.8243C74.0342 13.1516 74.787 12.3492 76.2874 12.3492C77.7913 12.3492 79.277 13.0339 79.277 13.0339L79.9999 11.207C79.9999 11.207 78.7889 10.2774 76.3277 10.2706C72.5194 10.2501 70.0449 12.0248 69.7239 14.2904C69.5255 15.7092 70.4192 16.5723 71.5033 17.6811C71.9113 18.1012 72.3392 18.4875 72.736 18.9232C73.459 19.7151 73.8197 20.5294 73.157 21.305C72.6402 21.9127 71.5276 22.0801 70.77 22.0075C68.9256 21.8358 67.8453 20.9371 67.8453 20.9371L66.4528 23.0165C66.4528 23.0165 68.0719 24.3051 70.983 24.2245C75.5373 24.0942 77.4647 21.5222 77.5782 19.6612C77.6479 18.522 77.2801 17.7383 76.1977 16.6414M52.3053 16.4188C49.9983 20.7431 48.4099 21.251 47.6583 21.251C46.9086 21.251 45.1287 19.92 47.768 16.248C50.191 12.8728 52.9203 12.2611 54.2604 12.2611C54.2604 12.2611 53.8464 13.5349 52.3053 16.4188ZM53.7442 10.6028C50.4813 10.6409 45.705 12.2798 43.2499 16.9767C40.7973 21.6748 42.5958 24.1551 45.0781 24.1551C47.5415 24.1551 49.3016 22.852 51.3263 20.3094L50.0373 23.82H54.1264L58.5602 11.6344C58.5602 11.6344 56.7527 10.5679 53.744 10.603M65.4173 16.6414C64.0914 15.2998 63.1329 14.4937 63.1931 13.8243C63.2537 13.1516 64.0056 12.3492 65.5069 12.3492C67.0108 12.3492 68.0855 12.884 68.0855 12.884L69.2164 11.207C69.2164 11.207 68.0072 10.2774 65.546 10.2706C61.7347 10.2501 59.2613 12.0248 58.9417 14.2904C58.7429 15.7092 59.639 16.5723 60.721 17.6811C61.1287 18.1012 61.5545 18.4875 61.9547 18.9232C62.6754 19.7151 63.0366 20.5294 62.3734 21.305C61.8563 21.9127 60.7484 22.0801 59.9877 22.0075C58.1443 21.8358 57.0623 20.9371 57.0623 20.9371L55.6722 23.0165C55.6722 23.0165 57.2879 24.3051 60.2009 24.2245C64.7559 24.0942 66.6833 21.5222 66.7986 19.6612C66.8649 18.522 66.4958 17.7383 65.4173 16.6414Z" fill="white"/>
<path d="M72.7978 1.23413C68.6255 1.7125 64.3965 1.82602 60.2006 1.77019C55.0098 1.70066 49.8332 1.16329 44.6407 1.29515C42.5355 1.34809 40.4409 1.48456 38.379 1.71682C33.8417 2.22692 28.6173 3.3464 24.7618 5.89073C22.0758 7.66384 20.7347 9.42411 20.5728 9.52783C23.2717 7.88282 24.9584 7.23019 27.1916 6.56096C35.4401 4.09295 43.5525 4.1293 51.9132 4.16507C53.2162 4.17113 54.5247 4.17618 55.8414 4.17286C70.7223 4.13016 78.5584 0.000116348 78.5584 0.000116348C76.7413 0.690261 74.7219 1.01384 72.7979 1.23413" fill="white"/>
<path d="M51.4062 4.64313C50.9315 4.63159 50.6677 4.62004 50.6603 4.61961C45.0806 4.55642 45.0186 4.55643 39.6545 4.82879C26.7063 5.69695 20.7132 9.78214 20.7605 9.75228C21.4786 9.35845 22.5126 9.19139 23.2589 9.00443C24.1101 8.7902 24.963 8.64666 25.8144 8.47355C30.8442 7.4529 35.8154 7.21862 40.8456 7.22121C45.4028 7.22208 50.0405 7.20751 54.7635 6.88869C58.4428 6.63854 62.1734 6.20201 65.8691 5.35203C68.3124 4.79042 70.7237 4.04344 73.0567 3.09002C74.3137 2.57472 75.5469 2.00445 76.7444 1.37403C77.221 1.12345 77.677 0.815738 78.1619 0.581025C69.44 4.81133 54.8528 4.72709 51.4062 4.64313Z" fill="white"/>
</g>
<defs>
<clipPath id="clip0_40_27801">
<rect width="80" height="30" fill="white"/>
</clipPath>
</defs>
</svg>
