<svg width="80" height="80" viewBox="0 0 80 80" fill="none" xmlns="http://www.w3.org/2000/svg">
<mask id="mask0_39_27656" style="mask-type:alpha" maskUnits="userSpaceOnUse" x="0" y="0" width="80" height="80">
<rect width="80" height="80" fill="#D9D9D9"/>
</mask>
<g mask="url(#mask0_39_27656)">
<path d="M60 63.3333H51.6667C51.1945 63.3333 50.7986 63.1733 50.4792 62.8533C50.1597 62.5333 50 62.1369 50 61.6642C50 61.1914 50.1597 60.7958 50.4792 60.4775C50.7986 60.1592 51.1945 60 51.6667 60H60V51.6667C60 51.1944 60.16 50.7986 60.48 50.4792C60.8 50.1597 61.1964 50 61.6692 50C62.142 50 62.5375 50.1597 62.8558 50.4792C63.1742 50.7986 63.3333 51.1944 63.3333 51.6667V60H71.6667C72.1389 60 72.5347 60.16 72.8542 60.48C73.1736 60.8 73.3333 61.1964 73.3333 61.6692C73.3333 62.1419 73.1736 62.5375 72.8542 62.8558C72.5347 63.1742 72.1389 63.3333 71.6667 63.3333H63.3333V71.6667C63.3333 72.1389 63.1733 72.5347 62.8533 72.8542C62.5333 73.1736 62.1369 73.3333 61.6642 73.3333C61.1914 73.3333 60.7958 73.1736 60.4775 72.8542C60.1592 72.5347 60 72.1389 60 71.6667V63.3333ZM13.4617 65C12.6989 65 12.0594 64.7419 11.5433 64.2258C11.0272 63.7097 10.7692 63.0703 10.7692 62.3075V45H9.28834C8.44667 45 7.74584 44.6614 7.18584 43.9842C6.62584 43.3069 6.45695 42.5472 6.67917 41.705L10.0125 27.09C10.1497 26.4806 10.4697 25.9797 10.9725 25.5875C11.4753 25.1958 12.0464 25 12.6858 25H53.9808C54.6203 25 55.1914 25.1958 55.6942 25.5875C56.197 25.9797 56.5169 26.4806 56.6542 27.09L59.9875 41.705C60.2097 42.5472 60.0408 43.3069 59.4808 43.9842C58.9208 44.6614 58.22 45 57.3783 45H55.8975V54.2308C55.8975 54.7031 55.7375 55.0989 55.4175 55.4183C55.0975 55.7378 54.7011 55.8975 54.2283 55.8975C53.7556 55.8975 53.36 55.7378 53.0417 55.4183C52.7233 55.0989 52.5642 54.7031 52.5642 54.2308V45H37.4358V62.3075C37.4358 63.0703 37.1778 63.7097 36.6617 64.2258C36.1456 64.7419 35.5061 65 34.7433 65H13.4617ZM14.1025 61.6667H34.1025V45H14.1025V61.6667ZM12.1792 18.3333C11.7069 18.3333 11.3111 18.1733 10.9917 17.8533C10.6722 17.5333 10.5125 17.1369 10.5125 16.6642C10.5125 16.1914 10.6722 15.7958 10.9917 15.4775C11.3111 15.1592 11.7069 15 12.1792 15H54.4875C54.9597 15 55.3556 15.16 55.675 15.48C55.9944 15.8 56.1542 16.1964 56.1542 16.6692C56.1542 17.1419 55.9944 17.5375 55.675 17.8558C55.3556 18.1742 54.9597 18.3333 54.4875 18.3333H12.1792ZM10.0383 41.6667H56.6283L53.5383 28.3333H13.1283L10.0383 41.6667Z" fill="white"/>
</g>
</svg>
