<svg width="80" height="80" viewBox="0 0 80 80" fill="none" xmlns="http://www.w3.org/2000/svg">
<mask id="mask0_39_27644" style="mask-type:alpha" maskUnits="userSpaceOnUse" x="0" y="0" width="80" height="80">
<rect width="80" height="80" fill="#D9D9D9"/>
</mask>
<g mask="url(#mask0_39_27644)">
<path d="M20.6393 66.6666C20.166 66.6666 19.7702 66.5069 19.4518 66.1874C19.1335 65.868 18.9743 65.4721 18.9743 64.9999V33.1541L10.0002 39.8399C9.60684 40.096 9.20072 40.2038 8.78184 40.1632C8.3635 40.1227 8.00461 39.9057 7.70517 39.5124C7.40628 39.1196 7.28017 38.7138 7.32684 38.2949C7.37406 37.876 7.59434 37.5171 7.98767 37.2182L36.7502 15.7116C37.233 15.3527 37.7513 15.0941 38.3052 14.9357C38.8591 14.7774 39.4241 14.6982 40.0002 14.6982C40.5763 14.6982 41.1413 14.7774 41.6952 14.9357C42.2491 15.0941 42.7674 15.3527 43.2502 15.7116L72.0768 37.2182C72.4574 37.5171 72.6743 37.876 72.7277 38.2949C72.781 38.7138 72.6582 39.1196 72.3593 39.5124C72.0599 39.9057 71.7007 40.1227 71.2818 40.1632C70.8635 40.2038 70.4577 40.096 70.0643 39.8399L61.0902 33.1541V64.9999C61.0902 65.4721 60.9302 65.868 60.6102 66.1874C60.2902 66.5069 59.8938 66.6666 59.421 66.6666C58.9482 66.6666 58.5527 66.5069 58.2343 66.1874C57.916 65.868 57.7568 65.4721 57.7568 64.9999V33.7182H22.3077V64.9999C22.3077 65.4721 22.1477 65.868 21.8277 66.1874C21.5082 66.5069 21.1121 66.6666 20.6393 66.6666ZM29.6152 63.3332C29.1429 63.3332 28.7471 63.1732 28.4277 62.8532C28.1082 62.5332 27.9485 62.1369 27.9485 61.6641C27.9485 61.1913 28.1082 60.7957 28.4277 60.4774C28.7471 60.1591 29.1429 59.9999 29.6152 59.9999H50.3852C50.8574 59.9999 51.2532 60.1599 51.5727 60.4799C51.8921 60.7999 52.0518 61.1963 52.0518 61.6691C52.0518 62.1419 51.8921 62.5374 51.5727 62.8557C51.2532 63.1741 50.8574 63.3332 50.3852 63.3332H29.6152ZM29.6152 53.4616C29.1429 53.4616 28.7471 53.3016 28.4277 52.9816C28.1082 52.6616 27.9485 52.2652 27.9485 51.7924C27.9485 51.3196 28.1082 50.9241 28.4277 50.6057C28.7471 50.2874 29.1429 50.1282 29.6152 50.1282H50.3852C50.8574 50.1282 51.2532 50.2882 51.5727 50.6082C51.8921 50.9277 52.0518 51.3241 52.0518 51.7974C52.0518 52.2702 51.8921 52.6657 51.5727 52.9841C51.2532 53.3024 50.8574 53.4616 50.3852 53.4616H29.6152ZM29.6152 43.5899C29.1429 43.5899 28.7471 43.4299 28.4277 43.1099C28.1082 42.7899 27.9485 42.3935 27.9485 41.9207C27.9485 41.448 28.1082 41.0524 28.4277 40.7341C28.7471 40.4157 29.1429 40.2566 29.6152 40.2566H50.3852C50.8574 40.2566 51.2532 40.4163 51.5727 40.7357C51.8921 41.0557 52.0518 41.4521 52.0518 41.9249C52.0518 42.3982 51.8921 42.7941 51.5727 43.1124C51.2532 43.4307 50.8574 43.5899 50.3852 43.5899H29.6152ZM22.6985 30.3849H57.3652L40.0002 17.5191L22.6985 30.3849Z" fill="white"/>
</g>
</svg>
