<svg width="80" height="80" viewBox="0 0 80 80" fill="none" xmlns="http://www.w3.org/2000/svg">
<mask id="mask0_40_27800" style="mask-type:alpha" maskUnits="userSpaceOnUse" x="0" y="0" width="80" height="80">
<rect width="80" height="80" fill="#D9D9D9"/>
</mask>
<g mask="url(#mask0_40_27800)">
<path d="M58.9292 70.9615C54.9036 70.9615 51.4903 69.5748 48.6892 66.8015C45.8881 64.0276 44.4875 60.6279 44.4875 56.6023C44.4875 52.5768 45.8881 49.1665 48.6892 46.3715C51.4903 43.5765 54.9036 42.179 58.9292 42.179C62.942 42.179 66.3353 43.5798 69.1092 46.3815C71.8825 49.1826 73.2692 52.5896 73.2692 56.6023C73.2692 60.6151 71.8825 64.0115 69.1092 66.7915C66.3353 69.5715 62.942 70.9615 58.9292 70.9615ZM13.3333 59.9998V34.359V35.9548V19.9998V59.9998ZM13.3333 29.359H66.6667V22.0515C66.6667 21.5382 66.4531 21.0679 66.0258 20.6407C65.5986 20.2134 65.1283 19.9998 64.615 19.9998H15.385C14.8717 19.9998 14.4014 20.2134 13.9742 20.6407C13.5469 21.0679 13.3333 21.5382 13.3333 22.0515V29.359ZM15.385 63.3332C13.8506 63.3332 12.5694 62.8193 11.5417 61.7915C10.5139 60.7637 10 59.4826 10 57.9482V22.0515C10 20.5171 10.5139 19.2359 11.5417 18.2082C12.5694 17.1804 13.8506 16.6665 15.385 16.6665H64.615C66.1494 16.6665 67.4306 17.1804 68.4583 18.2082C69.4861 19.2359 70 20.5171 70 22.0515V34.064C70 34.8929 69.6656 35.5007 68.9967 35.8873C68.3278 36.2746 67.6067 36.3098 66.8333 35.9932C65.56 35.4548 64.2214 35.0479 62.8175 34.7723C61.4136 34.4968 59.9572 34.359 58.4483 34.359C56.5211 34.359 54.6675 34.6143 52.8875 35.1248C51.1081 35.6354 49.4617 36.3629 47.9483 37.3073H13.3333V57.9482C13.3333 58.4615 13.5469 58.9318 13.9742 59.359C14.4014 59.7862 14.8717 59.9998 15.385 59.9998H35.8908C36.3653 59.9998 36.7617 60.159 37.08 60.4773C37.3983 60.7957 37.5575 61.1921 37.5575 61.6665C37.5575 62.1409 37.3983 62.5373 37.08 62.8557C36.7617 63.174 36.3653 63.3332 35.8908 63.3332H15.385ZM60.1925 56.064V48.2048C60.1925 47.8459 60.0686 47.5426 59.8208 47.2948C59.5725 47.0471 59.2689 46.9232 58.91 46.9232C58.5511 46.9232 58.2478 47.0471 58 47.2948C57.7522 47.5426 57.6283 47.8459 57.6283 48.2048V56.0448C57.6283 56.4037 57.6903 56.7382 57.8142 57.0482C57.9381 57.3576 58.1453 57.6576 58.4358 57.9482L63.7758 63.2882C64.0236 63.5359 64.3164 63.6707 64.6542 63.6923C64.9914 63.7134 65.3053 63.5787 65.5958 63.2882C65.8864 62.9976 66.0317 62.6943 66.0317 62.3782C66.0317 62.0621 65.8864 61.7587 65.5958 61.4682L60.1925 56.064Z" fill="white"/>
</g>
</svg>
