<svg width="80" height="80" viewBox="0 0 80 80" fill="none" xmlns="http://www.w3.org/2000/svg">
<mask id="mask0_39_27626" style="mask-type:alpha" maskUnits="userSpaceOnUse" x="0" y="0" width="80" height="80">
<rect width="80" height="80" fill="#D9D9D9"/>
</mask>
<g mask="url(#mask0_39_27626)">
<path d="M29.1667 62.3075C29.59 62.3075 29.9414 62.1675 30.2208 61.8875C30.5008 61.6081 30.6408 61.2567 30.6408 60.8333V40.705C32.2136 40.3889 33.5256 39.6614 34.5767 38.5225C35.6283 37.3836 36.1542 35.9872 36.1542 34.3333V22.3075C36.1542 21.9486 36.03 21.6453 35.7817 21.3975C35.5339 21.1497 35.2306 21.0258 34.8717 21.0258C34.5128 21.0258 34.2094 21.1497 33.9617 21.3975C33.7139 21.6453 33.59 21.9486 33.59 22.3075V32.9483H30.4483V22.3075C30.4483 21.9486 30.3244 21.6453 30.0767 21.3975C29.8289 21.1497 29.5256 21.0258 29.1667 21.0258C28.8078 21.0258 28.5044 21.1497 28.2567 21.3975C28.0089 21.6453 27.885 21.9486 27.885 22.3075V32.9483H24.7433V22.3075C24.7433 21.9486 24.6194 21.6453 24.3717 21.3975C24.1239 21.1497 23.8206 21.0258 23.4617 21.0258C23.1028 21.0258 22.7994 21.1497 22.5517 21.3975C22.3033 21.6453 22.1792 21.9486 22.1792 22.3075V34.3333C22.1792 35.9872 22.705 37.3836 23.7567 38.5225C24.8078 39.6614 26.1197 40.3889 27.6925 40.705V60.8333C27.6925 61.2567 27.8325 61.6081 28.1125 61.8875C28.3919 62.1675 28.7433 62.3075 29.1667 62.3075ZM49.1667 62.3075C49.59 62.3075 49.9414 62.1675 50.2208 61.8875C50.5008 61.6081 50.6408 61.2567 50.6408 60.8333V41.5258C52.4314 40.8503 53.8514 39.6044 54.9008 37.7883C55.9497 35.9722 56.4742 33.8014 56.4742 31.2758C56.4742 28.3225 55.7786 25.8758 54.3875 23.9358C52.9969 21.9958 51.2567 21.0258 49.1667 21.0258C47.0767 21.0258 45.3364 21.9958 43.9458 23.9358C42.5547 25.8758 41.8592 28.3225 41.8592 31.2758C41.8592 33.8014 42.3836 35.9722 43.4325 37.7883C44.4819 39.6044 45.9019 40.8503 47.6925 41.5258V60.8333C47.6925 61.2567 47.8325 61.6081 48.1125 61.8875C48.3919 62.1675 48.7433 62.3075 49.1667 62.3075ZM15.385 70C13.8506 70 12.5694 69.4861 11.5417 68.4583C10.5139 67.4306 10 66.1494 10 64.615V15.385C10 13.8506 10.5139 12.5694 11.5417 11.5417C12.5694 10.5139 13.8506 10 15.385 10H64.615C66.1494 10 67.4306 10.5139 68.4583 11.5417C69.4861 12.5694 70 13.8506 70 15.385V64.615C70 66.1494 69.4861 67.4306 68.4583 68.4583C67.4306 69.4861 66.1494 70 64.615 70H15.385ZM15.385 66.6667H64.615C65.1283 66.6667 65.5986 66.4531 66.0258 66.0258C66.4531 65.5986 66.6667 65.1283 66.6667 64.615V15.385C66.6667 14.8717 66.4531 14.4014 66.0258 13.9742C65.5986 13.5469 65.1283 13.3333 64.615 13.3333H15.385C14.8717 13.3333 14.4014 13.5469 13.9742 13.9742C13.5469 14.4014 13.3333 14.8717 13.3333 15.385V64.615C13.3333 65.1283 13.5469 65.5986 13.9742 66.0258C14.4014 66.4531 14.8717 66.6667 15.385 66.6667Z" fill="white"/>
</g>
</svg>
