<svg width="80" height="80" viewBox="0 0 80 80" fill="none" xmlns="http://www.w3.org/2000/svg">
<mask id="mask0_39_27674" style="mask-type:alpha" maskUnits="userSpaceOnUse" x="0" y="0" width="80" height="80">
<rect width="80" height="80" fill="#D9D9D9"/>
</mask>
<g mask="url(#mask0_39_27674)">
<path d="M15.385 63.3332C13.8506 63.3332 12.5694 62.8193 11.5417 61.7915C10.5139 60.7637 10 59.4826 10 57.9482V22.0515C10 20.5171 10.5139 19.2359 11.5417 18.2082C12.5694 17.1804 13.8506 16.6665 15.385 16.6665H64.615C66.1494 16.6665 67.4306 17.1804 68.4583 18.2082C69.4861 19.2359 70 20.5171 70 22.0515V34.6415C70 35.3548 69.7542 35.9776 69.2625 36.5098C68.7714 37.0415 68.1625 37.3073 67.4358 37.3073H13.3333V57.9482C13.3333 58.4615 13.5469 58.9318 13.9742 59.359C14.4014 59.7862 14.8717 59.9998 15.385 59.9998H44.1025C44.5747 59.9998 44.9706 60.1598 45.29 60.4798C45.6094 60.7998 45.7692 61.1962 45.7692 61.669C45.7692 62.1418 45.6094 62.5373 45.29 62.8557C44.9706 63.174 44.5747 63.3332 44.1025 63.3332H15.385ZM13.3333 29.359H66.6667V22.0515C66.6667 21.5382 66.4531 21.0679 66.0258 20.6407C65.5986 20.2134 65.1283 19.9998 64.615 19.9998H15.385C14.8717 19.9998 14.4014 20.2134 13.9742 20.6407C13.5469 21.0679 13.3333 21.5382 13.3333 22.0515V29.359ZM65 61.6665H56.6667C56.1944 61.6665 55.7986 61.5065 55.4792 61.1865C55.1597 60.8665 55 60.4701 55 59.9973C55 59.5246 55.1597 59.129 55.4792 58.8107C55.7986 58.4923 56.1944 58.3332 56.6667 58.3332H65V49.9998C65 49.5276 65.16 49.1318 65.48 48.8123C65.8 48.4929 66.1964 48.3332 66.6692 48.3332C67.142 48.3332 67.5375 48.4929 67.8558 48.8123C68.1742 49.1318 68.3333 49.5276 68.3333 49.9998V58.3332H76.6667C77.1389 58.3332 77.5347 58.4932 77.8542 58.8132C78.1736 59.1332 78.3333 59.5296 78.3333 60.0023C78.3333 60.4751 78.1736 60.8707 77.8542 61.189C77.5347 61.5073 77.1389 61.6665 76.6667 61.6665H68.3333V69.9998C68.3333 70.4721 68.1733 70.8679 67.8533 71.1873C67.5333 71.5068 67.1369 71.6665 66.6642 71.6665C66.1914 71.6665 65.7958 71.5068 65.4775 71.1873C65.1592 70.8679 65 70.4721 65 69.9998V61.6665Z" fill="white"/>
</g>
</svg>
