<svg width="80" height="80" viewBox="0 0 80 80" fill="none" xmlns="http://www.w3.org/2000/svg">
<mask id="mask0_40_27832" style="mask-type:alpha" maskUnits="userSpaceOnUse" x="0" y="0" width="80" height="80">
<rect width="80" height="80" fill="#D9D9D9"/>
</mask>
<g mask="url(#mask0_40_27832)">
<path d="M38.9743 13.91L18.5835 25.7116L40.0002 38.09L61.4168 25.7116L41.026 13.91C40.6838 13.6966 40.3418 13.59 40.0002 13.59C39.6585 13.59 39.3166 13.6966 38.9743 13.91ZM13.3335 52.0316V27.9683C13.3335 27.0022 13.5691 26.1091 14.0402 25.2891C14.5113 24.4691 15.1732 23.8086 16.026 23.3075L37.3077 11.045C37.7777 10.7672 38.2221 10.5769 38.641 10.4741C39.0599 10.3719 39.5118 10.3208 39.9968 10.3208C40.4818 10.3208 40.9488 10.3719 41.3977 10.4741C41.8465 10.5769 42.2782 10.7672 42.6927 11.045L63.9743 23.3075C64.8271 23.8086 65.4891 24.4691 65.9602 25.2891C66.4313 26.1091 66.6668 27.0022 66.6668 27.9683V37.8208C66.6668 38.293 66.5068 38.6889 66.1868 39.0083C65.8668 39.3277 65.4704 39.4875 64.9977 39.4875C64.5249 39.4875 64.1293 39.3277 63.811 39.0083C63.4927 38.6889 63.3335 38.293 63.3335 37.8208V28.41L42.6093 40.3783C41.7532 40.8611 40.8521 41.1025 39.906 41.1025C38.9604 41.1025 38.0666 40.8611 37.2243 40.3783L16.6668 28.41V52.0125C16.6668 52.3547 16.7524 52.6752 16.9235 52.9741C17.0941 53.2736 17.3504 53.53 17.6927 53.7433L37.8852 65.5C38.1352 65.6389 38.3366 65.8336 38.4893 66.0841C38.6421 66.3347 38.7185 66.6128 38.7185 66.9183C38.7185 67.5583 38.4513 68.0266 37.9168 68.3233C37.3824 68.6205 36.8374 68.6133 36.2818 68.3016L16.026 56.6925C15.1732 56.1914 14.5113 55.5308 14.0402 54.7108C13.5691 53.8908 13.3335 52.9977 13.3335 52.0316ZM60.0002 71.09C60.4446 71.09 60.8121 70.9447 61.1027 70.6541C61.3932 70.3636 61.5385 69.9961 61.5385 69.5516C61.5385 69.1072 61.3932 68.7394 61.1027 68.4483C60.8121 68.1577 60.4446 68.0125 60.0002 68.0125C59.5557 68.0125 59.1882 68.1577 58.8977 68.4483C58.6071 68.7394 58.4618 69.1072 58.4618 69.5516C58.4618 69.9961 58.6071 70.3636 58.8977 70.6541C59.1882 70.9447 59.5557 71.09 60.0002 71.09ZM60.0002 64.6791C60.3418 64.6791 60.641 64.5511 60.8977 64.295C61.1538 64.0383 61.2818 63.7391 61.2818 63.3975V55.2C61.2818 54.8361 61.1538 54.53 60.8977 54.2816C60.641 54.0339 60.3418 53.91 60.0002 53.91C59.6585 53.91 59.3593 54.0383 59.1027 54.295C58.8465 54.5511 58.7185 54.8502 58.7185 55.1925V63.3891C58.7185 63.7536 58.8465 64.0597 59.1027 64.3075C59.3593 64.5552 59.6585 64.6791 60.0002 64.6791ZM60.0002 75.8333C56.2863 75.8333 53.1357 74.5394 50.5485 71.9516C47.9607 69.3644 46.6668 66.2139 46.6668 62.5C46.6668 58.7861 47.9607 55.6355 50.5485 53.0483C53.1357 50.4605 56.2863 49.1666 60.0002 49.1666C63.7141 49.1666 66.8646 50.4605 69.4518 53.0483C72.0396 55.6355 73.3335 58.7861 73.3335 62.5C73.3335 66.2139 72.0396 69.3644 69.4518 71.9516C66.8646 74.5394 63.7141 75.8333 60.0002 75.8333Z" fill="#1365C4"/>
</g>
</svg>
