<svg width="80" height="80" viewBox="0 0 80 80" fill="none" xmlns="http://www.w3.org/2000/svg">
<mask id="mask0_37_27244" style="mask-type:alpha" maskUnits="userSpaceOnUse" x="0" y="0" width="80" height="80">
<rect width="80" height="80" fill="#D9D9D9"/>
</mask>
<g mask="url(#mask0_37_27244)">
<path d="M32.9485 24.615H57.0518C57.5241 24.615 57.9199 24.775 58.2393 25.095C58.5588 25.415 58.7185 25.8114 58.7185 26.2842C58.7185 26.7569 58.5588 27.1525 58.2393 27.4708C57.9199 27.7892 57.5241 27.9483 57.0518 27.9483H32.9485C32.4763 27.9483 32.0804 27.7886 31.761 27.4692C31.4416 27.1492 31.2818 26.7528 31.2818 26.28C31.2818 25.8072 31.4416 25.4117 31.761 25.0933C32.0804 24.7744 32.4763 24.615 32.9485 24.615ZM32.9485 33.8458H57.0518C57.5241 33.8458 57.9199 34.0058 58.2393 34.3258C58.5588 34.6458 58.7185 35.0422 58.7185 35.515C58.7185 35.9878 58.5588 36.3833 58.2393 36.7017C57.9199 37.02 57.5241 37.1792 57.0518 37.1792H32.9485C32.4763 37.1792 32.0804 37.0194 31.761 36.7C31.4416 36.38 31.2818 35.9836 31.2818 35.5108C31.2818 35.0381 31.4416 34.6422 31.761 34.3233C32.0804 34.005 32.4763 33.8458 32.9485 33.8458ZM20.0002 70C18.1196 70 16.5385 69.3589 15.2568 68.0767C13.9746 66.795 13.3335 65.2139 13.3335 63.3333V56.795C13.3335 56.0322 13.5916 55.3928 14.1077 54.8767C14.6238 54.3606 15.2632 54.1025 16.026 54.1025H23.3335V15.385C23.3335 13.9039 23.8607 12.6361 24.9152 11.5817C25.9696 10.5272 27.2374 10 28.7185 10H61.2818C62.7629 10 64.0307 10.5272 65.0852 11.5817C66.1396 12.6361 66.6668 13.9039 66.6668 15.385V34.7433C66.6668 35.2156 66.5068 35.6114 66.1868 35.9308C65.8668 36.2503 65.4704 36.41 64.9977 36.41C64.5249 36.41 64.1293 36.2503 63.811 35.9308C63.4927 35.6114 63.3335 35.2156 63.3335 34.7433V15.385C63.3335 14.7867 63.1413 14.295 62.7568 13.91C62.3718 13.5256 61.8802 13.3333 61.2818 13.3333H28.7185C28.1202 13.3333 27.6285 13.5256 27.2435 13.91C26.8591 14.295 26.6668 14.7867 26.6668 15.385V54.1025H37.821C38.2932 54.1025 38.6891 54.2625 39.0085 54.5825C39.3279 54.9025 39.4877 55.2989 39.4877 55.7717C39.4877 56.2444 39.3279 56.64 39.0085 56.9583C38.6891 57.2767 38.2932 57.4358 37.821 57.4358H16.6668V63.3333C16.6668 64.2778 16.9863 65.0694 17.6252 65.7083C18.2641 66.3472 19.0557 66.6667 20.0002 66.6667H37.821C38.2932 66.6667 38.6891 66.8267 39.0085 67.1467C39.3279 67.4667 39.4877 67.8631 39.4877 68.3358C39.4877 68.8086 39.3279 69.2042 39.0085 69.5225C38.6891 69.8408 38.2932 70 37.821 70H20.0002ZM47.436 67.3075V63.7308C47.436 63.3903 47.4979 63.0606 47.6218 62.7417C47.7457 62.4222 47.9529 62.1172 48.2435 61.8267L65.2118 44.9425C65.5407 44.6131 65.8802 44.3908 66.2302 44.2758C66.5802 44.1603 66.9302 44.1025 67.2802 44.1025C67.6618 44.1025 68.0368 44.1742 68.4052 44.3175C68.774 44.4603 69.1091 44.675 69.4102 44.9617L72.4935 48.1092C72.7674 48.4381 72.9757 48.78 73.1185 49.135C73.2618 49.4894 73.3335 49.8439 73.3335 50.1983C73.3335 50.5533 73.2652 50.9114 73.1285 51.2725C72.9918 51.6336 72.7802 51.9786 72.4935 52.3075L55.6093 69.1925C55.3188 69.4831 55.0138 69.6903 54.6943 69.8142C54.3754 69.9381 54.0457 70 53.7052 70H50.1285C49.3657 70 48.7263 69.7419 48.2102 69.2258C47.6941 68.7097 47.436 68.0703 47.436 67.3075ZM50.3852 67.0517H53.5518L65.1093 55.4742L63.5452 53.8908L62.026 52.2625L50.3852 63.885V67.0517ZM63.5452 53.8908L62.026 52.2625L65.1093 55.4742L63.5452 53.8908Z" fill="#1365C4"/>
</g>
</svg>
