<svg width="80" height="80" viewBox="0 0 80 80" fill="none" xmlns="http://www.w3.org/2000/svg">
<mask id="mask0_39_27314" style="mask-type:alpha" maskUnits="userSpaceOnUse" x="0" y="0" width="80" height="80">
<rect width="80" height="80" fill="#D9D9D9"/>
</mask>
<g mask="url(#mask0_39_27314)">
<path d="M26.2116 14.7622L24.3783 9.49305C24.2416 9.13861 24.2724 8.78389 24.4708 8.42889C24.6696 8.07444 24.9574 7.82889 25.3341 7.69222C25.6796 7.55555 26.0313 7.58139 26.3891 7.76972C26.7474 7.95805 26.9916 8.225 27.1216 8.57055L28.9549 13.8206C29.0916 14.175 29.0602 14.5311 28.8608 14.8889C28.6613 15.2472 28.3785 15.4914 28.0124 15.6214C27.6452 15.7581 27.2866 15.7458 26.9366 15.5847C26.5866 15.4236 26.3449 15.1494 26.2116 14.7622ZM38.5258 10.8331V5.83305C38.5258 5.40694 38.6646 5.05472 38.9424 4.77639C39.2202 4.49805 39.5716 4.35889 39.9966 4.35889C40.4221 4.35889 40.7746 4.49805 41.0541 4.77639C41.3341 5.05472 41.4741 5.40694 41.4741 5.83305V10.8331C41.4741 11.2592 41.3352 11.6114 41.0574 11.8897C40.7796 12.1681 40.4282 12.3072 40.0033 12.3072C39.5777 12.3072 39.2252 12.1681 38.9458 11.8897C38.6658 11.6114 38.5258 11.2592 38.5258 10.8331ZM51.0641 13.8206L52.8783 8.57055C53.0116 8.21555 53.2533 7.94944 53.6032 7.77222C53.9532 7.595 54.3166 7.57472 54.6932 7.71139C55.0388 7.84805 55.3141 8.09361 55.5191 8.44805C55.7241 8.80305 55.7583 9.15778 55.6216 9.51222L53.7882 14.7622C53.6583 15.1078 53.4141 15.3747 53.0557 15.5631C52.698 15.7514 52.3419 15.7772 51.9874 15.6406C51.6324 15.5039 51.3555 15.255 51.1566 14.8939C50.9583 14.5328 50.9274 14.175 51.0641 13.8206ZM10.1541 74.8397C9.73075 74.9081 9.35075 74.8142 9.01408 74.5581C8.67686 74.3025 8.47769 73.9669 8.41658 73.5514L8.37825 73.2431C8.30992 72.8203 8.39825 72.4439 8.64325 72.1139C8.88825 71.7844 9.22297 71.5883 9.64742 71.5256L25.7374 69.0189C26.6841 68.8578 27.5233 68.4744 28.2549 67.8689C28.9866 67.2639 29.4849 66.5061 29.7499 65.5956L32.5191 56.7622C32.9252 55.5572 32.8932 54.38 32.4233 53.2305C31.9533 52.0811 31.1433 51.2478 29.9933 50.7305L27.3457 58.9231C27.1963 59.3419 26.9219 59.6633 26.5224 59.8872C26.123 60.1117 25.703 60.1492 25.2624 59.9997C24.8224 59.8503 24.4902 59.5758 24.2658 59.1764C24.0413 58.7764 24.0041 58.3669 24.1541 57.9481L31.4483 35.0639C31.6877 34.2606 31.7113 33.4719 31.5191 32.6981C31.3269 31.9247 30.8974 31.3714 30.2307 31.0381L17.3974 55.4997C16.6796 56.8542 15.6357 57.9322 14.2657 58.7339C12.8963 59.535 11.2949 59.9356 9.46158 59.9356H8.88492C8.44325 59.9356 8.08075 59.7936 7.79742 59.5097C7.51353 59.2264 7.37158 58.8642 7.37158 58.4231V58.1147C7.37158 57.6736 7.51353 57.3114 7.79742 57.0281C8.08075 56.7442 8.44325 56.6022 8.88492 56.6022H10.0382C10.9582 56.6022 11.8155 56.3711 12.6099 55.9089C13.4049 55.4467 14.0113 54.7953 14.4291 53.9547L27.8524 28.4164C28.203 27.7431 28.7285 27.3056 29.4291 27.1039C30.1302 26.9022 30.8119 26.9808 31.4741 27.3397L31.7433 27.4931C33.2005 28.3608 34.1783 29.6142 34.6766 31.2531C35.1744 32.8919 35.1688 34.5297 34.6599 36.1664L30.9874 47.6022C33.0041 48.4183 34.458 49.8072 35.3491 51.7689C36.2402 53.7306 36.361 55.7478 35.7116 57.8206L32.8783 66.6539C32.3955 68.175 31.5524 69.4431 30.3491 70.4581C29.1463 71.4731 27.7713 72.0981 26.2241 72.3331L10.1541 74.8397ZM53.7757 72.3972C52.2285 72.1622 50.8535 71.5372 49.6508 70.5222C48.4474 69.5072 47.6044 68.2392 47.1216 66.7181L44.2883 57.8847C43.6388 55.8119 43.7596 53.7947 44.6507 51.8331C45.5419 49.8714 46.9958 48.4825 49.0124 47.6664L45.3399 36.2306C44.831 34.5939 44.8255 32.9561 45.3233 31.3172C45.8216 29.6783 46.7994 28.425 48.2566 27.5572L48.5258 27.4039C49.188 27.0444 49.8696 26.9658 50.5707 27.1681C51.2713 27.3697 51.7969 27.8072 52.1474 28.4806L65.5707 54.0189C65.9885 54.8594 66.5949 55.5108 67.3899 55.9731C68.1844 56.4353 69.0416 56.6664 69.9616 56.6664H71.1149C71.5566 56.6664 71.9191 56.8083 72.2024 57.0922C72.4863 57.3755 72.6283 57.7378 72.6283 58.1789V58.4872C72.6283 58.9283 72.4863 59.2906 72.2024 59.5739C71.9191 59.8578 71.5566 59.9997 71.1149 59.9997H70.5383C68.7049 59.9997 67.1035 59.5992 65.7341 58.7981C64.3641 57.9964 63.3202 56.9183 62.6024 55.5639L49.7691 31.1022C49.1024 31.4356 48.673 31.9889 48.4808 32.7622C48.2885 33.5361 48.3121 34.3247 48.5516 35.1281L55.8458 58.0122C55.9958 58.4311 55.9585 58.8403 55.7341 59.2397C55.5096 59.6397 55.1774 59.9144 54.7374 60.0639C54.2969 60.2133 53.8744 60.1831 53.4699 59.9731C53.0655 59.7636 52.7935 59.435 52.6541 58.9872L50.0066 50.7947C48.8566 51.3119 48.0466 52.1453 47.5766 53.2947C47.1066 54.4442 47.0746 55.6214 47.4808 56.8264L50.2499 65.6597C50.5149 66.5703 51.0132 67.3281 51.7449 67.9331C52.4766 68.5381 53.3158 68.9214 54.2624 69.0831L70.3524 71.5897C70.7769 71.6525 71.1116 71.8486 71.3566 72.1781C71.6016 72.5081 71.6899 72.8844 71.6216 73.3072L71.5833 73.6147C71.5221 74.0308 71.323 74.3667 70.9857 74.6222C70.6491 74.8783 70.2691 74.9722 69.8458 74.9039L53.7757 72.3972Z" fill="#1365C4"/>
</g>
</svg>
