<svg width="80" height="80" viewBox="0 0 80 80" fill="none" xmlns="http://www.w3.org/2000/svg">
<mask id="mask0_39_27353" style="mask-type:alpha" maskUnits="userSpaceOnUse" x="0" y="0" width="80" height="80">
<rect width="80" height="80" fill="#D9D9D9"/>
</mask>
<g mask="url(#mask0_39_27353)">
<path d="M56.6643 25.8975C56.1915 25.8975 55.796 25.7378 55.4777 25.4183C55.1593 25.0989 55.0002 24.7031 55.0002 24.2308V11.6667C55.0002 11.1944 55.1602 10.7986 55.4802 10.4792C55.8002 10.1597 56.1966 10 56.6693 10C57.1421 10 57.5377 10.1597 57.856 10.4792C58.1743 10.7986 58.3335 11.1944 58.3335 11.6667V24.2308C58.3335 24.7031 58.1735 25.0989 57.8535 25.4183C57.5335 25.7378 57.1371 25.8975 56.6643 25.8975ZM56.6668 36.6667C56.0857 36.6667 55.5985 36.47 55.2052 36.0767C54.8118 35.6839 54.6152 35.1967 54.6152 34.615C54.6152 34.0339 54.8118 33.5469 55.2052 33.1542C55.5985 32.7608 56.0857 32.5642 56.6668 32.5642C57.2479 32.5642 57.7352 32.7608 58.1285 33.1542C58.5218 33.5469 58.7185 34.0339 58.7185 34.615C58.7185 35.1967 58.5218 35.6839 58.1285 36.0767C57.7352 36.47 57.2479 36.6667 56.6668 36.6667ZM63.1027 66.6667C57.4832 66.6667 51.7227 65.2597 45.821 62.4458C39.9193 59.6314 34.4363 55.6814 29.3718 50.5958C24.3079 45.5108 20.3688 40.0281 17.5543 34.1475C14.7404 28.2669 13.3335 22.5169 13.3335 16.8975C13.3335 15.8792 13.6668 15.0306 14.3335 14.3517C15.0002 13.6728 15.8335 13.3333 16.8335 13.3333H25.0768C25.9829 13.3333 26.7735 13.6186 27.4485 14.1892C28.1241 14.7597 28.5816 15.4917 28.821 16.385L30.4743 24.3333C30.6282 25.265 30.6004 26.0792 30.391 26.7758C30.1816 27.4725 29.8118 28.0431 29.2818 28.4875L21.9685 35.3075C23.3357 37.7903 24.8474 40.0969 26.5035 42.2275C28.1596 44.3581 29.9257 46.3761 31.8018 48.2817C33.7374 50.2178 35.8207 52.0181 38.0518 53.6825C40.2824 55.347 42.731 56.9186 45.3977 58.3975L52.526 51.1408C53.0688 50.5553 53.6788 50.1697 54.356 49.9842C55.0332 49.7981 55.7821 49.7606 56.6027 49.8717L63.6152 51.3075C64.5213 51.5297 65.2565 51.9861 65.821 52.6767C66.3849 53.3667 66.6668 54.1583 66.6668 55.0517V63.1667C66.6668 64.1667 66.3274 65 65.6485 65.6667C64.9696 66.3333 64.121 66.6667 63.1027 66.6667ZM20.4043 32.1792L26.8018 26.295C27.0152 26.1239 27.1541 25.8889 27.2185 25.59C27.2824 25.2906 27.2716 25.0128 27.186 24.7567L25.7052 17.6925C25.6196 17.3503 25.4702 17.0939 25.2568 16.9233C25.0429 16.7522 24.7652 16.6667 24.4235 16.6667H17.5835C17.3268 16.6667 17.1132 16.7522 16.9427 16.9233C16.7716 17.0939 16.686 17.3075 16.686 17.5642C16.7499 19.8419 17.1068 22.22 17.7568 24.6983C18.4063 27.1772 19.2888 29.6708 20.4043 32.1792ZM48.571 59.9617C50.8227 61.0772 53.2232 61.9019 55.7727 62.4358C58.3216 62.9703 60.5427 63.2567 62.436 63.295C62.6927 63.295 62.9063 63.2094 63.0768 63.0383C63.2479 62.8672 63.3335 62.6536 63.3335 62.3975V55.705C63.3335 55.3633 63.2479 55.0856 63.0768 54.8717C62.9063 54.6583 62.6499 54.5089 62.3077 54.4233L56.141 53.16C55.8849 53.0744 55.6607 53.0639 55.4685 53.1283C55.2757 53.1922 55.0727 53.3311 54.8593 53.545L48.571 59.9617Z" fill="#1365C4"/>
</g>
</svg>
