<svg width="80" height="80" viewBox="0 0 80 80" fill="none" xmlns="http://www.w3.org/2000/svg">
<mask id="mask0_39_27335" style="mask-type:alpha" maskUnits="userSpaceOnUse" x="0" y="0" width="80" height="80">
<rect width="80" height="80" fill="#D9D9D9"/>
</mask>
<g mask="url(#mask0_39_27335)">
<path d="M39.9998 66.2825C38.7693 66.2825 37.7096 65.9244 36.8207 65.2083C35.9318 64.4928 35.4104 63.5731 35.2565 62.4492H33.3332C32.4398 62.4492 31.6609 62.1167 30.9965 61.4517C30.3321 60.7872 29.9998 60.0083 29.9998 59.115V49.0767C26.5509 47.1667 23.8832 44.5619 21.9965 41.2625C20.1098 37.9636 19.1665 34.4872 19.1665 30.8333C19.1665 25.0083 21.1826 20.08 25.2148 16.0483C29.2465 12.0161 34.1748 10 39.9998 10C45.8248 10 50.7532 12.0161 54.7848 16.0483C58.8171 20.08 60.8332 25.0083 60.8332 30.8333C60.8332 34.5128 59.8898 37.9956 58.0032 41.2817C56.1165 44.5683 53.4487 47.1667 49.9998 49.0767V59.115C49.9998 60.0083 49.6676 60.7872 49.0032 61.4517C48.3387 62.1167 47.5598 62.4492 46.6665 62.4492H44.7432C44.5893 63.5731 44.0679 64.4928 43.179 65.2083C42.2901 65.9244 41.2304 66.2825 39.9998 66.2825ZM33.3332 59.115H46.6665V55.8592H33.3332V59.115ZM33.3332 53.295H46.6665V50H33.3332V53.295ZM32.6665 46.6667H38.5257V36.2567L32.6215 30.3525C32.3354 30.0664 32.1815 29.7289 32.1598 29.34C32.1387 28.9511 32.2926 28.5919 32.6215 28.2625C32.9504 27.9336 33.2987 27.7692 33.6665 27.7692C34.0343 27.7692 34.3826 27.9336 34.7115 28.2625L39.9998 33.5517L45.2882 28.2625C45.5748 27.9764 45.9126 27.8228 46.3015 27.8017C46.6904 27.78 47.0493 27.9336 47.3782 28.2625C47.7071 28.5919 47.8715 28.9403 47.8715 29.3075C47.8715 29.6753 47.7071 30.0236 47.3782 30.3525L41.474 36.2567V46.6667H47.3332C50.3332 45.2222 52.7776 43.0972 54.6665 40.2917C56.5554 37.4861 57.4998 34.3333 57.4998 30.8333C57.4998 25.9444 55.8054 21.8056 52.4165 18.4167C49.0276 15.0278 44.8887 13.3333 39.9998 13.3333C35.1109 13.3333 30.9721 15.0278 27.5832 18.4167C24.1943 21.8056 22.4998 25.9444 22.4998 30.8333C22.4998 34.3333 23.4443 37.4861 25.3332 40.2917C27.2221 43.0972 29.6665 45.2222 32.6665 46.6667Z" fill="#1365C4"/>
</g>
</svg>
