<svg width="80" height="80" viewBox="0 0 80 80" fill="none" xmlns="http://www.w3.org/2000/svg">
<mask id="mask0_39_27347" style="mask-type:alpha" maskUnits="userSpaceOnUse" x="0" y="0" width="80" height="80">
<rect width="80" height="80" fill="#D9D9D9"/>
</mask>
<g mask="url(#mask0_39_27347)">
<path d="M15.385 63.3335H64.615C65.2133 63.3335 65.705 63.1413 66.09 62.7568C66.4744 62.3718 66.6667 61.8802 66.6667 61.2818V56.2185C66.6667 55.6202 66.4744 55.1285 66.09 54.7435C65.705 54.3591 65.2133 54.1668 64.615 54.1668H15.385C14.7867 54.1668 14.295 54.3591 13.91 54.7435C13.5256 55.1285 13.3333 55.6202 13.3333 56.2185V61.2818C13.3333 61.8802 13.5256 62.3718 13.91 62.7568C14.295 63.1413 14.7867 63.3335 15.385 63.3335ZM32.2433 33.7818C32.2433 31.6668 33.0028 29.856 34.5217 28.3493C36.0411 26.8432 37.8672 26.0902 40 26.0902C40.4722 26.0902 40.8681 25.9302 41.1875 25.6102C41.5069 25.2902 41.6667 24.8938 41.6667 24.421C41.6667 23.9482 41.5069 23.5527 41.1875 23.2343C40.8681 22.916 40.4722 22.7568 40 22.7568C36.9506 22.7568 34.3397 23.8274 32.1675 25.9685C29.9958 28.1091 28.91 30.7135 28.91 33.7818V41.4743C28.91 41.9466 29.07 42.3424 29.39 42.6618C29.71 42.9813 30.1064 43.141 30.5792 43.141C31.0519 43.141 31.4475 42.9813 31.7658 42.6618C32.0842 42.3424 32.2433 41.9466 32.2433 41.4743V33.7818ZM22.7567 50.8335H57.2433V33.7818C57.2433 29.0002 55.5611 24.9521 52.1967 21.6377C48.8317 18.3238 44.7622 16.6668 39.9883 16.6668C35.2139 16.6668 31.1483 18.3238 27.7917 21.6377C24.435 24.9521 22.7567 29.0002 22.7567 33.7818V50.8335ZM15.385 66.6668C13.9039 66.6668 12.6361 66.1396 11.5817 65.0852C10.5272 64.0307 10 62.7629 10 61.2818V56.2185C10 54.7374 10.5272 53.4696 11.5817 52.4152C12.6361 51.3607 13.9039 50.8335 15.385 50.8335H19.4233V33.7818C19.4233 28.0857 21.4194 23.2535 25.4117 19.2852C29.4044 15.3174 34.2667 13.3335 39.9983 13.3335C45.73 13.3335 50.5928 15.3174 54.5867 19.2852C58.58 23.2535 60.5767 28.0857 60.5767 33.7818V50.8335H64.615C66.0961 50.8335 67.3639 51.3607 68.4183 52.4152C69.4728 53.4696 70 54.7374 70 56.2185V61.2818C70 62.7629 69.4728 64.0307 68.4183 65.0852C67.3639 66.1396 66.0961 66.6668 64.615 66.6668H15.385Z" fill="#1365C4"/>
</g>
</svg>
