<svg width="80" height="80" viewBox="0 0 80 80" fill="none" xmlns="http://www.w3.org/2000/svg">
<mask id="mask0_40_27758" style="mask-type:alpha" maskUnits="userSpaceOnUse" x="0" y="0" width="80" height="80">
<rect width="80" height="80" fill="#D9D9D9"/>
</mask>
<g mask="url(#mask0_40_27758)">
<path d="M18.7185 66.6665C17.2374 66.6665 15.9696 66.1393 14.9152 65.0848C13.8607 64.0304 13.3335 62.7626 13.3335 61.2815V18.7182C13.3335 17.2371 13.8607 15.9693 14.9152 14.9148C15.9696 13.8604 17.2374 13.3332 18.7185 13.3332H34.3852C34.0813 11.6321 34.4882 10.0957 35.606 8.724C36.7232 7.35234 38.1985 6.6665 40.0318 6.6665C41.8652 6.6665 43.3407 7.35234 44.4585 8.724C45.5763 10.0957 45.9618 11.6321 45.6152 13.3332H61.2818C62.7629 13.3332 64.0307 13.8604 65.0852 14.9148C66.1396 15.9693 66.6668 17.2371 66.6668 18.7182V61.2815C66.6668 62.7626 66.1396 64.0304 65.0852 65.0848C64.0307 66.1393 62.7629 66.6665 61.2818 66.6665H18.7185ZM18.7185 63.3332H61.2818C61.7952 63.3332 62.2654 63.1196 62.6927 62.6923C63.1199 62.2651 63.3335 61.7948 63.3335 61.2815V18.7182C63.3335 18.2048 63.1199 17.7346 62.6927 17.3073C62.2654 16.8801 61.7952 16.6665 61.2818 16.6665H18.7185C18.2052 16.6665 17.7349 16.8801 17.3077 17.3073C16.8804 17.7346 16.6668 18.2048 16.6668 18.7182V61.2815C16.6668 61.7948 16.8804 62.2651 17.3077 62.6923C17.7349 63.1196 18.2052 63.3332 18.7185 63.3332ZM26.6668 54.2307H43.3335C43.8057 54.2307 44.2015 54.0707 44.521 53.7507C44.8404 53.4307 45.0002 53.0343 45.0002 52.5615C45.0002 52.0887 44.8404 51.6932 44.521 51.3748C44.2015 51.0565 43.8057 50.8973 43.3335 50.8973H26.6668C26.1946 50.8973 25.7988 51.0573 25.4793 51.3773C25.1599 51.6968 25.0002 52.0932 25.0002 52.5665C25.0002 53.0393 25.1599 53.4348 25.4793 53.7532C25.7988 54.0715 26.1946 54.2307 26.6668 54.2307ZM26.6668 41.6665H53.3335C53.8057 41.6665 54.2015 41.5065 54.521 41.1865C54.8404 40.8665 55.0002 40.4701 55.0002 39.9973C55.0002 39.5246 54.8404 39.129 54.521 38.8107C54.2015 38.4923 53.8057 38.3332 53.3335 38.3332H26.6668C26.1946 38.3332 25.7988 38.4932 25.4793 38.8132C25.1599 39.1332 25.0002 39.5296 25.0002 40.0023C25.0002 40.4751 25.1599 40.8707 25.4793 41.189C25.7988 41.5073 26.1946 41.6665 26.6668 41.6665ZM26.6668 29.1023H53.3335C53.8057 29.1023 54.2015 28.9423 54.521 28.6223C54.8404 28.3029 55.0002 27.9065 55.0002 27.4332C55.0002 26.9604 54.8404 26.5648 54.521 26.2465C54.2015 25.9282 53.8057 25.769 53.3335 25.769H26.6668C26.1946 25.769 25.7988 25.929 25.4793 26.249C25.1599 26.569 25.0002 26.9654 25.0002 27.4382C25.0002 27.9109 25.1599 28.3065 25.4793 28.6248C25.7988 28.9432 26.1946 29.1023 26.6668 29.1023ZM40.0002 14.8073C40.7224 14.8073 41.3196 14.5712 41.7918 14.099C42.2641 13.6268 42.5002 13.0296 42.5002 12.3073C42.5002 11.5851 42.2641 10.9879 41.7918 10.5157C41.3196 10.0434 40.7224 9.80734 40.0002 9.80734C39.2779 9.80734 38.6807 10.0434 38.2085 10.5157C37.7363 10.9879 37.5002 11.5851 37.5002 12.3073C37.5002 13.0296 37.7363 13.6268 38.2085 14.099C38.6807 14.5712 39.2779 14.8073 40.0002 14.8073Z" fill="white"/>
</g>
</svg>
