<svg width="80" height="80" viewBox="0 0 80 80" fill="none" xmlns="http://www.w3.org/2000/svg">
<mask id="mask0_40_27698" style="mask-type:alpha" maskUnits="userSpaceOnUse" x="0" y="0" width="80" height="80">
<rect width="80" height="80" fill="#D9D9D9"/>
</mask>
<g mask="url(#mask0_40_27698)">
<path d="M18.3307 63.3332C17.8579 63.3332 17.4623 63.1735 17.144 62.854C16.8257 62.5346 16.6665 62.1387 16.6665 61.6665V18.3332C16.6665 17.8609 16.8265 17.4651 17.1465 17.1457C17.4665 16.8262 17.8629 16.6665 18.3357 16.6665C18.8084 16.6665 19.204 16.8262 19.5223 17.1457C19.8407 17.4651 19.9998 17.8609 19.9998 18.3332V61.6665C19.9998 62.1387 19.8398 62.5346 19.5198 62.854C19.1998 63.1735 18.8034 63.3332 18.3307 63.3332ZM39.9973 63.3332C39.5246 63.3332 39.129 63.1735 38.8107 62.854C38.4923 62.5346 38.3332 62.1387 38.3332 61.6665V54.7432C38.3332 54.271 38.4932 53.8751 38.8132 53.5557C39.1332 53.2362 39.5296 53.0765 40.0023 53.0765C40.4751 53.0765 40.8707 53.2362 41.189 53.5557C41.5073 53.8751 41.6665 54.271 41.6665 54.7432V61.6665C41.6665 62.1387 41.5065 62.5346 41.1865 62.854C40.8665 63.1735 40.4701 63.3332 39.9973 63.3332ZM61.664 63.3332C61.1912 63.3332 60.7957 63.1735 60.4773 62.854C60.159 62.5346 59.9998 62.1387 59.9998 61.6665V18.3332C59.9998 17.8609 60.1598 17.4651 60.4798 17.1457C60.7998 16.8262 61.1962 16.6665 61.669 16.6665C62.1418 16.6665 62.5373 16.8262 62.8557 17.1457C63.174 17.4651 63.3332 17.8609 63.3332 18.3332V61.6665C63.3332 62.1387 63.1732 62.5346 62.8532 62.854C62.5332 63.1735 62.1368 63.3332 61.664 63.3332ZM39.9973 45.1282C39.5246 45.1282 39.129 44.9685 38.8107 44.649C38.4923 44.3296 38.3332 43.9337 38.3332 43.4615V36.5382C38.3332 36.066 38.4932 35.6701 38.8132 35.3507C39.1332 35.0312 39.5296 34.8715 40.0023 34.8715C40.4751 34.8715 40.8707 35.0312 41.189 35.3507C41.5073 35.6701 41.6665 36.066 41.6665 36.5382V43.4615C41.6665 43.9337 41.5065 44.3296 41.1865 44.649C40.8665 44.9685 40.4701 45.1282 39.9973 45.1282ZM39.9973 26.9232C39.5246 26.9232 39.129 26.7635 38.8107 26.444C38.4923 26.1246 38.3332 25.7287 38.3332 25.2565V18.3332C38.3332 17.8609 38.4932 17.4651 38.8132 17.1457C39.1332 16.8262 39.5296 16.6665 40.0023 16.6665C40.4751 16.6665 40.8707 16.8262 41.189 17.1457C41.5073 17.4651 41.6665 17.8609 41.6665 18.3332V25.2565C41.6665 25.7287 41.5065 26.1246 41.1865 26.444C40.8665 26.7635 40.4701 26.9232 39.9973 26.9232Z" fill="white"/>
</g>
</svg>
