<svg width="80" height="80" viewBox="0 0 80 80" fill="none" xmlns="http://www.w3.org/2000/svg">
<mask id="mask0_40_27728" style="mask-type:alpha" maskUnits="userSpaceOnUse" x="0" y="0" width="80" height="80">
<rect width="80" height="80" fill="#D9D9D9"/>
</mask>
<g mask="url(#mask0_40_27728)">
<path d="M35.6409 38.3334H44.3592V13.9742C44.3592 12.7737 43.9329 11.747 43.0801 10.8942C42.2279 10.0415 41.2012 9.61507 40.0001 9.61507C38.799 9.61507 37.7723 10.0415 36.9201 10.8942C36.0673 11.747 35.6409 12.7737 35.6409 13.9742V38.3334ZM16.2817 50.3851H63.7184V43.7184C63.7184 43.1201 63.5259 42.6284 63.1409 42.2434C62.7565 41.859 62.2651 41.6667 61.6667 41.6667H18.3334C17.7351 41.6667 17.2437 41.859 16.8592 42.2434C16.4742 42.6284 16.2817 43.1201 16.2817 43.7184V50.3851ZM13.6284 70.3851H22.3076V62.0517C22.3076 61.5795 22.4676 61.1837 22.7876 60.8642C23.1076 60.5448 23.504 60.3851 23.9767 60.3851C24.4495 60.3851 24.8451 60.5448 25.1634 60.8642C25.4817 61.1837 25.6409 61.5795 25.6409 62.0517V70.3851H38.3334V62.0517C38.3334 61.5795 38.4934 61.1837 38.8134 60.8642C39.1334 60.5448 39.5298 60.3851 40.0026 60.3851C40.4754 60.3851 40.8709 60.5448 41.1892 60.8642C41.5076 61.1837 41.6667 61.5795 41.6667 62.0517V70.3851H54.3592V62.0517C54.3592 61.5795 54.5192 61.1837 54.8392 60.8642C55.1587 60.5448 55.5548 60.3851 56.0276 60.3851C56.5009 60.3851 56.8967 60.5448 57.2151 60.8642C57.5334 61.1837 57.6926 61.5795 57.6926 62.0517V70.3851H66.3717C67.0556 70.3851 67.6112 70.1179 68.0384 69.5834C68.4656 69.049 68.5726 68.4615 68.3592 67.8209L64.2567 53.7184H15.7434L11.6409 67.8209C11.4276 68.4615 11.5345 69.049 11.9617 69.5834C12.389 70.1179 12.9445 70.3851 13.6284 70.3851ZM66.8851 73.7184H13.1151C11.504 73.7184 10.1815 73.0709 9.14757 71.7759C8.11313 70.4809 7.83119 69.0342 8.30174 67.4359L12.9484 51.4742V43.3334C12.9484 41.9273 13.4304 40.7426 14.3942 39.7792C15.3581 38.8153 16.5429 38.3334 17.9484 38.3334H32.3076V13.9742C32.3076 11.8376 33.0556 10.0215 34.5517 8.5259C36.0473 7.02979 37.8634 6.28174 40.0001 6.28174C42.1367 6.28174 43.9529 7.02979 45.4484 8.5259C46.9445 10.0215 47.6926 11.8376 47.6926 13.9742V38.3334H62.0517C63.4573 38.3334 64.642 38.8153 65.6059 39.7792C66.5698 40.7426 67.0517 41.9273 67.0517 43.3334V51.4742L71.6984 67.5642C72.2073 69.1198 71.9415 70.5342 70.9009 71.8076C69.8604 73.0815 68.5217 73.7184 66.8851 73.7184Z" fill="white"/>
</g>
</svg>
