<svg width="80" height="80" viewBox="0 0 80 80" fill="none" xmlns="http://www.w3.org/2000/svg">
<mask id="mask0_40_27770" style="mask-type:alpha" maskUnits="userSpaceOnUse" x="0" y="0" width="80" height="80">
<rect width="80" height="80" fill="#D9D9D9"/>
</mask>
<g mask="url(#mask0_40_27770)">
<path d="M16.6668 66.6668C15.2479 66.6668 14.2393 66.0332 13.6409 64.766C13.0426 63.4988 13.1837 62.3163 14.0643 61.2185L33.3334 37.821V16.6668H28.7184C28.2462 16.6668 27.8504 16.5068 27.5309 16.1868C27.2115 15.8668 27.0518 15.4704 27.0518 14.9977C27.0518 14.5249 27.2115 14.1293 27.5309 13.811C27.8504 13.4927 28.2462 13.3335 28.7184 13.3335H51.2818C51.754 13.3335 52.1498 13.4935 52.4693 13.8135C52.7887 14.1335 52.9485 14.5299 52.9485 15.0027C52.9485 15.4754 52.7887 15.871 52.4693 16.1893C52.1498 16.5077 51.754 16.6668 51.2818 16.6668H46.6668V37.821L65.936 61.2185C66.8165 62.3163 66.9576 63.4988 66.3593 64.766C65.761 66.0332 64.7523 66.6668 63.3335 66.6668H16.6668ZM16.6668 63.3335H63.3335L43.3334 39.0002V16.6668H36.6668V39.0002L16.6668 63.3335Z" fill="white"/>
</g>
</svg>
