<svg width="80" height="80" viewBox="0 0 80 80" fill="none" xmlns="http://www.w3.org/2000/svg">
<mask id="mask0_40_27746" style="mask-type:alpha" maskUnits="userSpaceOnUse" x="0" y="0" width="80" height="80">
<rect width="80" height="80" fill="#D9D9D9"/>
</mask>
<g mask="url(#mask0_40_27746)">
<path d="M40.0002 66.6668C32.2096 66.6668 25.8174 65.6743 20.8235 63.6893C15.8302 61.7043 13.3335 59.1499 13.3335 56.026V23.3335C13.3335 20.5641 15.9329 18.2052 21.1318 16.2568C26.3302 14.3079 32.6196 13.3335 40.0002 13.3335C47.3807 13.3335 53.6702 14.3079 58.8685 16.2568C64.0674 18.2052 66.6668 20.5641 66.6668 23.3335V56.026C66.6668 59.1499 64.1702 61.7043 59.1768 63.6893C54.1829 65.6743 47.7907 66.6668 40.0002 66.6668ZM40.0002 29.6352C44.7735 29.6352 49.5854 28.9693 54.436 27.6377C59.2865 26.3066 62.1882 24.8568 63.141 23.2885C62.231 21.6346 59.3752 20.1177 54.5735 18.7377C49.7724 17.3571 44.9146 16.6668 40.0002 16.6668C35.1585 16.6668 30.3071 17.3324 25.446 18.6635C20.5849 19.9946 17.6799 21.4507 16.731 23.0318C17.6371 24.6985 20.4993 26.2157 25.3177 27.5835C30.136 28.9513 35.0302 29.6352 40.0002 29.6352ZM40.0002 46.4102C42.2907 46.4102 44.5407 46.2991 46.7502 46.0768C48.9596 45.8546 51.0718 45.5246 53.0868 45.0868C55.1018 44.6485 56.9735 44.1024 58.7018 43.4485C60.4307 42.7952 61.9746 42.0582 63.3335 41.2377V27.5835C61.9746 28.4041 60.4307 29.1413 58.7018 29.7952C56.9735 30.449 55.1018 30.9949 53.0868 31.4327C51.0718 31.871 48.9596 32.2013 46.7502 32.4235C44.5407 32.6457 42.2907 32.7568 40.0002 32.7568C37.6241 32.7568 35.3143 32.6349 33.071 32.391C30.8271 32.1477 28.7085 31.8068 26.7152 31.3685C24.7213 30.9307 22.8741 30.3954 21.1735 29.7627C19.4724 29.1304 17.9702 28.4041 16.6668 27.5835V41.2377C17.9702 42.0582 19.4724 42.7846 21.1735 43.4168C22.8741 44.0491 24.7213 44.5843 26.7152 45.0227C28.7085 45.4604 30.8271 45.8013 33.071 46.0452C35.3143 46.2885 37.6241 46.4102 40.0002 46.4102ZM40.0002 63.3335C42.8546 63.3335 45.5693 63.171 48.1443 62.846C50.7193 62.5216 53.0324 62.0613 55.0835 61.4652C57.1346 60.8691 58.8782 60.1574 60.3143 59.3302C61.7504 58.5035 62.7568 57.6093 63.3335 56.6477V44.571C61.9746 45.3916 60.4307 46.1285 58.7018 46.7818C56.9735 47.4357 55.1018 47.9818 53.0868 48.4202C51.0718 48.8579 48.9596 49.1879 46.7502 49.4102C44.5407 49.6324 42.2907 49.7435 40.0002 49.7435C37.6241 49.7435 35.3143 49.6218 33.071 49.3785C30.8271 49.1346 28.7085 48.7938 26.7152 48.356C24.7213 47.9177 22.8741 47.3824 21.1735 46.7502C19.4724 46.1179 17.9702 45.3916 16.6668 44.571V56.6668C17.2435 57.6713 18.2468 58.5729 19.6768 59.3718C21.1063 60.1713 22.8466 60.8691 24.8977 61.4652C26.9488 62.0613 29.2649 62.5216 31.846 62.846C34.4277 63.171 37.1457 63.3335 40.0002 63.3335Z" fill="white"/>
</g>
</svg>
