<svg width="80" height="80" viewBox="0 0 80 80" fill="none" xmlns="http://www.w3.org/2000/svg">
<mask id="mask0_40_27710" style="mask-type:alpha" maskUnits="userSpaceOnUse" x="0" y="0" width="80" height="80">
<rect width="80" height="80" fill="#D9D9D9"/>
</mask>
<g mask="url(#mask0_40_27710)">
<path d="M61.5518 69.9165C61.1923 69.9165 60.8609 69.8576 60.5576 69.7398C60.2543 69.6226 59.9573 69.4187 59.6668 69.1281L43.0518 52.5765C42.7606 52.2859 42.5565 51.989 42.4393 51.6856C42.3215 51.3823 42.2626 51.0512 42.2626 50.6923C42.2626 50.3334 42.3215 50.002 42.4393 49.6981C42.5565 49.3948 42.7606 49.0979 43.0518 48.8073L48.5959 43.2623C48.8865 42.9718 49.1837 42.7679 49.4876 42.6506C49.7909 42.5329 50.122 42.474 50.4809 42.474C50.8398 42.474 51.1709 42.5329 51.4743 42.6506C51.7776 42.7679 52.0745 42.9718 52.3651 43.2623L68.9809 59.8781C69.2715 60.1687 69.4756 60.4656 69.5934 60.769C69.7106 61.0723 69.7693 61.4034 69.7693 61.7623C69.7693 62.1217 69.7106 62.4531 69.5934 62.7565C69.4756 63.0598 69.2715 63.3568 68.9809 63.6473L63.4359 69.1281C63.1454 69.4187 62.8484 69.6226 62.5451 69.7398C62.2418 69.8576 61.9106 69.9165 61.5518 69.9165ZM61.5518 66.4231L66.2118 61.7623L50.5001 46.0515L45.8401 50.7115L61.5518 66.4231ZM18.3651 69.9356C18.0062 69.9356 17.672 69.8737 17.3626 69.7498C17.0526 69.6259 16.7523 69.4187 16.4618 69.1281L10.9359 63.6665C10.6454 63.3759 10.4381 63.0756 10.3143 62.7656C10.1904 62.4562 10.1284 62.1217 10.1284 61.7623C10.1284 61.4034 10.1904 61.0617 10.3143 60.7373C10.4381 60.4123 10.6454 60.1045 10.9359 59.814L28.0901 42.6598H35.0451L37.6218 40.0831L23.4876 25.9481H18.7376L10.3209 17.5315L17.4293 10.4231L25.8459 18.8398V23.5898L39.9809 37.724L50.0318 27.6731L43.8851 21.5256L47.6543 17.7565H40.0959L38.7243 16.4481L48.1859 6.9873L49.4934 8.2948V15.9165L53.2626 12.1473L66.5068 25.2623C67.3229 26.0362 67.9276 26.9243 68.3209 27.9265C68.7137 28.9281 68.9101 29.989 68.9101 31.109C68.9101 31.9295 68.7884 32.7265 68.5451 33.4998C68.3012 34.2731 67.9423 35.004 67.4684 35.6923L60.6409 28.8648L55.9101 33.5956L52.3459 30.0315L37.3401 45.0381V52.1023L20.2501 69.1281C19.9595 69.4187 19.6626 69.6259 19.3593 69.7498C19.0559 69.8737 18.7245 69.9356 18.3651 69.9356ZM18.3651 66.359L34.7759 49.9481V45.2881H30.1151L13.7051 61.6981L18.3651 66.359ZM18.3651 66.359L13.7051 61.6981L16.0451 64.019L18.3651 66.359Z" fill="white"/>
</g>
</svg>
