<svg width="80" height="80" viewBox="0 0 80 80" fill="none" xmlns="http://www.w3.org/2000/svg">
<mask id="mask0_39_27596" style="mask-type:alpha" maskUnits="userSpaceOnUse" x="0" y="0" width="80" height="80">
<rect width="80" height="80" fill="#D9D9D9"/>
</mask>
<g mask="url(#mask0_39_27596)">
<path d="M11.6667 66.6668C11.1944 66.6668 10.7986 66.5068 10.4792 66.1868C10.1597 65.8668 10 65.4704 10 64.9977C10 64.5249 10.1597 64.1293 10.4792 63.811C10.7986 63.4927 11.1944 63.3335 11.6667 63.3335H68.3333C68.8056 63.3335 69.2014 63.4935 69.5208 63.8135C69.8403 64.1335 70 64.5299 70 65.0027C70 65.4754 69.8403 65.871 69.5208 66.1893C69.2014 66.5077 68.8056 66.6668 68.3333 66.6668H11.6667ZM16.6742 57.436C15.7503 57.436 14.9625 57.1118 14.3108 56.4635C13.6592 55.8157 13.3333 55.0288 13.3333 54.1027V43.3335C13.3333 42.4074 13.6567 41.6204 14.3033 40.9727C14.95 40.3243 15.7353 40.0002 16.6592 40.0002C17.5831 40.0002 18.3708 40.3243 19.0225 40.9727C19.6742 41.6204 20 42.4074 20 43.3335V54.1027C20 55.0288 19.6767 55.8157 19.03 56.4635C18.3833 57.1118 17.5981 57.436 16.6742 57.436ZM32.1867 57.436C31.2633 57.436 30.4756 57.1118 29.8233 56.4635C29.1717 55.8157 28.8458 55.0288 28.8458 54.1027V26.6668C28.8458 25.7407 29.1692 24.9538 29.8158 24.306C30.4625 23.6577 31.2478 23.3335 32.1717 23.3335C33.0956 23.3335 33.8833 23.6577 34.535 24.306C35.1867 24.9538 35.5125 25.7407 35.5125 26.6668V54.1027C35.5125 55.0288 35.1892 55.8157 34.5425 56.4635C33.8958 57.1118 33.1106 57.436 32.1867 57.436ZM47.7642 57.436C46.8403 57.436 46.0525 57.1118 45.4008 56.4635C44.7492 55.8157 44.4233 55.0288 44.4233 54.1027V36.6668C44.4233 35.7407 44.7467 34.9538 45.3933 34.306C46.04 33.6577 46.8253 33.3335 47.7492 33.3335C48.6731 33.3335 49.4608 33.6577 50.1125 34.306C50.7642 34.9538 51.09 35.7407 51.09 36.6668V54.1027C51.09 55.0288 50.7667 55.8157 50.12 56.4635C49.4733 57.1118 48.6881 57.436 47.7642 57.436ZM63.3408 57.436C62.4169 57.436 61.6292 57.1118 60.9775 56.4635C60.3258 55.8157 60 55.0288 60 54.1027V16.6668C60 15.7407 60.3233 14.9538 60.97 14.306C61.6167 13.6577 62.4019 13.3335 63.3258 13.3335C64.2497 13.3335 65.0375 13.6577 65.6892 14.306C66.3408 14.9538 66.6667 15.7407 66.6667 16.6668V54.1027C66.6667 55.0288 66.3433 55.8157 65.6967 56.4635C65.05 57.1118 64.2647 57.436 63.3408 57.436Z" fill="white"/>
</g>
</svg>
