<svg width="80" height="80" viewBox="0 0 80 80" fill="none" xmlns="http://www.w3.org/2000/svg">
<mask id="mask0_39_27572" style="mask-type:alpha" maskUnits="userSpaceOnUse" x="0" y="0" width="80" height="80">
<rect width="80" height="80" fill="#D9D9D9"/>
</mask>
<g mask="url(#mask0_39_27572)">
<path d="M39.7925 58.7185C40.8625 58.7185 41.7523 58.3688 42.4617 57.6693C43.1711 56.9693 43.5259 56.0846 43.5259 55.0152C43.5259 53.9452 43.1761 53.0554 42.4767 52.346C41.7773 51.6366 40.8925 51.2818 39.8225 51.2818C38.7531 51.2818 37.8636 51.6315 37.1542 52.331C36.4448 53.031 36.09 53.9157 36.09 54.9852C36.09 56.0552 36.4398 56.9449 37.1392 57.6543C37.8386 58.3638 38.7231 58.7185 39.7925 58.7185ZM39.7925 43.7185C40.8625 43.7185 41.7523 43.3688 42.4617 42.6693C43.1711 41.9693 43.5259 41.0846 43.5259 40.0152C43.5259 38.9452 43.1761 38.0554 42.4767 37.346C41.7773 36.6366 40.8925 36.2818 39.8225 36.2818C38.7531 36.2818 37.8636 36.6315 37.1542 37.331C36.4448 38.031 36.09 38.9157 36.09 39.9852C36.09 41.0552 36.4398 41.9449 37.1392 42.6543C37.8386 43.3638 38.7231 43.7185 39.7925 43.7185ZM39.7925 28.7185C40.8625 28.7185 41.7523 28.3688 42.4617 27.6693C43.1711 26.9693 43.5259 26.0846 43.5259 25.0152C43.5259 23.9452 43.1761 23.0554 42.4767 22.346C41.7773 21.6366 40.8925 21.2818 39.8225 21.2818C38.7531 21.2818 37.8636 21.6315 37.1542 22.331C36.4448 23.031 36.09 23.9157 36.09 24.9852C36.09 26.0552 36.4398 26.9449 37.1392 27.6543C37.8386 28.3638 38.7231 28.7185 39.7925 28.7185ZM26.4742 50.7693V42.9618C24.752 42.5641 23.3823 41.8557 22.365 40.8368C21.3484 39.8174 20.6609 38.6521 20.3025 37.341C20.2375 36.7977 20.3717 36.3357 20.705 35.9552C21.0384 35.5752 21.485 35.3852 22.045 35.3852H26.4742V27.5768C24.752 27.1796 23.3823 26.4713 22.365 25.4518C21.3484 24.4329 20.6609 23.2679 20.3025 21.9568C20.2375 21.4129 20.3717 20.951 20.705 20.571C21.0384 20.1904 21.485 20.0002 22.045 20.0002H26.4742V16.9235C26.4742 15.7735 26.8006 14.8877 27.4534 14.266C28.1061 13.6443 28.8909 13.3335 29.8075 13.3335H49.8075C50.7242 13.3335 51.5089 13.6443 52.1617 14.266C52.8145 14.8877 53.1409 15.7735 53.1409 16.9235V20.0002H57.955C58.515 20.0002 58.9509 20.201 59.2625 20.6027C59.5748 21.0043 59.695 21.4707 59.6234 22.0018C59.2295 23.2829 58.4811 24.4329 57.3784 25.4518C56.2756 26.4713 54.8631 27.1796 53.1409 27.5768V35.3852H57.955C58.515 35.3852 58.9509 35.586 59.2625 35.9877C59.5748 36.3893 59.695 36.8557 59.6234 37.3868C59.2295 38.6674 58.4811 39.8174 57.3784 40.8368C56.2756 41.8557 54.8631 42.5641 53.1409 42.9618V50.7693H57.955C58.515 50.7693 58.9509 50.9702 59.2625 51.3718C59.5748 51.7735 59.695 52.2399 59.6234 52.771C59.2295 54.0521 58.4811 55.2021 57.3784 56.221C56.2756 57.2404 54.8631 57.9488 53.1409 58.346V63.3335C53.1409 64.2502 52.8145 65.0349 52.1617 65.6877C51.5089 66.3404 50.7242 66.6668 49.8075 66.6668H29.8075C28.8909 66.6668 28.1061 66.3404 27.4534 65.6877C26.8006 65.0349 26.4742 64.2502 26.4742 63.3335V58.346C24.752 57.9488 23.3823 57.2404 22.365 56.221C21.3484 55.2021 20.6609 54.0371 20.3025 52.726C20.2375 52.1821 20.3717 51.7202 20.705 51.3402C21.0384 50.9596 21.485 50.7693 22.045 50.7693H26.4742ZM29.8075 63.3335H49.8075V16.6668H29.8075V63.3335Z" fill="white"/>
</g>
</svg>
