<svg width="80" height="80" viewBox="0 0 80 80" fill="none" xmlns="http://www.w3.org/2000/svg">
<mask id="mask0_39_27608" style="mask-type:alpha" maskUnits="userSpaceOnUse" x="0" y="0" width="80" height="80">
<rect width="80" height="80" fill="#D9D9D9"/>
</mask>
<g mask="url(#mask0_39_27608)">
<path d="M13.3333 66.6667V13.3333V39.4617V37.3717V66.6667ZM20 37.5125V56.8208C20 57.2564 20.1431 57.6175 20.4292 57.9042C20.7158 58.1903 21.0769 58.3333 21.5125 58.3333H21.8208C22.2564 58.3333 22.6175 58.1903 22.9042 57.9042C23.1903 57.6175 23.3333 57.2564 23.3333 56.8208V51.6667H35.9683C36.5239 51.6667 36.9372 51.4903 37.2083 51.1375C37.4794 50.7853 37.615 50.4061 37.615 50C37.615 49.5939 37.4794 49.2147 37.2083 48.8625C36.9372 48.5097 36.5239 48.3333 35.9683 48.3333H23.3333V38.3333H56.25C57.1472 38.3333 57.8758 37.9636 58.4358 37.2242C58.9958 36.4847 59.1306 35.6878 58.84 34.8333L55.0125 23.1792C54.8631 22.7008 54.5972 22.3292 54.215 22.0642C53.8322 21.7992 53.4017 21.6667 52.9233 21.6667H27.0767C26.5983 21.6667 26.1678 21.7992 25.785 22.0642C25.4028 22.3292 25.1369 22.7008 24.9875 23.1792L20 37.5125ZM24.3458 35L27.8333 25H52.1667L55.6542 35H24.3458ZM28.7183 45.8975C29.4061 45.8975 30.0053 45.6422 30.5158 45.1317C31.0264 44.6206 31.2817 44.0211 31.2817 43.3333C31.2817 42.6456 31.0264 42.0461 30.5158 41.535C30.0053 41.0244 29.4061 40.7692 28.7183 40.7692C28.03 40.7692 27.4306 41.0244 26.92 41.535C26.4094 42.0461 26.1542 42.6456 26.1542 43.3333C26.1542 44.0211 26.4094 44.6206 26.92 45.1317C27.4306 45.6422 28.03 45.8975 28.7183 45.8975ZM55.3592 61.6667L51.6217 57.9292C51.3739 57.6814 51.0747 57.547 50.7242 57.5258C50.3736 57.5042 50.0531 57.6386 49.7625 57.9292C49.472 58.2197 49.3267 58.5297 49.3267 58.8592C49.3267 59.1881 49.472 59.4978 49.7625 59.7883L53.4742 63.5C54.0125 64.0383 54.6408 64.3075 55.3592 64.3075C56.0769 64.3075 56.705 64.0383 57.2433 63.5L65.6217 55.1217C65.8694 54.8739 66.0042 54.5747 66.0258 54.2242C66.047 53.8736 65.9122 53.5531 65.6217 53.2625C65.3311 52.972 65.0214 52.8267 64.6925 52.8267C64.3631 52.8267 64.0531 52.972 63.7625 53.2625L55.3592 61.6667ZM57.6925 45.3208C61.4058 45.3208 64.5564 46.6145 67.1442 49.2017C69.7319 51.7895 71.0258 54.9403 71.0258 58.6542C71.0258 62.3675 69.7319 65.5181 67.1442 68.1058C64.5564 70.6936 61.4058 71.9875 57.6925 71.9875C53.9786 71.9875 50.8278 70.6936 48.24 68.1058C45.6528 65.5181 44.3592 62.3675 44.3592 58.6542C44.3592 54.9403 45.6528 51.7895 48.24 49.2017C50.8278 46.6145 53.9786 45.3208 57.6925 45.3208ZM15.385 70C13.8506 70 12.5694 69.4861 11.5417 68.4583C10.5139 67.4306 10 66.1495 10 64.615V15.385C10 13.8506 10.5139 12.5694 11.5417 11.5417C12.5694 10.5139 13.8506 10 15.385 10H64.615C66.1494 10 67.4306 10.5139 68.4583 11.5417C69.4861 12.5694 70 13.8506 70 15.385V37.795C70 38.2694 69.8408 38.6658 69.5225 38.9842C69.2042 39.3025 68.8078 39.4617 68.3333 39.4617C67.8589 39.4617 67.4625 39.3025 67.1442 38.9842C66.8258 38.6658 66.6667 38.2694 66.6667 37.795V15.385C66.6667 14.7867 66.4745 14.295 66.09 13.91C65.705 13.5256 65.2133 13.3333 64.615 13.3333H15.385C14.7867 13.3333 14.295 13.5256 13.91 13.91C13.5256 14.295 13.3333 14.7867 13.3333 15.385V64.615C13.3333 65.2133 13.5256 65.705 13.91 66.09C14.295 66.4745 14.7867 66.6667 15.385 66.6667H37.1983C37.6728 66.6667 38.0692 66.8258 38.3875 67.1442C38.7058 67.4625 38.865 67.8589 38.865 68.3333C38.865 68.8078 38.7058 69.2042 38.3875 69.5225C38.0692 69.8408 37.6728 70 37.1983 70H15.385Z" fill="white"/>
</g>
</svg>
