<svg width="80" height="80" viewBox="0 0 80 80" fill="none" xmlns="http://www.w3.org/2000/svg">
<mask id="mask0_39_27590" style="mask-type:alpha" maskUnits="userSpaceOnUse" x="0" y="0" width="80" height="80">
<rect width="80" height="80" fill="#D9D9D9"/>
</mask>
<g mask="url(#mask0_39_27590)">
<path d="M10 44.7567C10 44.4533 10.0172 44.1497 10.0517 43.8458C10.0856 43.5425 10.1581 43.2456 10.2692 42.955L16.615 25C16.7778 24.47 17.0908 24.0597 17.5542 23.7692C18.0181 23.4786 18.5342 23.3333 19.1025 23.3333H32.4167C32.8889 23.3333 33.2847 23.4933 33.6042 23.8133C33.9236 24.1333 34.0833 24.5297 34.0833 25.0025C34.0833 25.4753 33.9236 25.8708 33.6042 26.1892C33.2847 26.5075 32.8889 26.6667 32.4167 26.6667H19.6283L14.7183 40.5125H41.6667C42.1389 40.5125 42.5347 40.6725 42.8542 40.9925C43.1736 41.3125 43.3333 41.7089 43.3333 42.1817C43.3333 42.6544 43.1736 43.05 42.8542 43.3683C42.5347 43.6867 42.1389 43.8458 41.6667 43.8458H13.3333V60H60V46.3908C60 45.9186 60.16 45.5228 60.48 45.2033C60.8 44.8839 61.1964 44.7242 61.6692 44.7242C62.1419 44.7242 62.5375 44.8839 62.8558 45.2033C63.1742 45.5228 63.3333 45.9186 63.3333 46.3908V67.9483C63.3333 68.5183 63.1331 69.0028 62.7325 69.4017C62.3325 69.8006 61.8464 70 61.2742 70C60.7025 70 60.2189 69.8006 59.8233 69.4017C59.4283 69.0028 59.2308 68.5183 59.2308 67.9483V63.3333H14.1025V67.9483C14.1025 68.5183 13.9025 69.0028 13.5025 69.4017C13.1019 69.8006 12.6156 70 12.0433 70C11.4717 70 10.9883 69.8006 10.5933 69.4017C10.1978 69.0028 10 68.5183 10 67.9483V44.7567ZM51.9383 55.6408C52.975 55.6408 53.8514 55.2781 54.5675 54.5525C55.2831 53.8264 55.6408 52.945 55.6408 51.9083C55.6408 50.8711 55.2781 49.9947 54.5525 49.2792C53.8264 48.5631 52.945 48.205 51.9083 48.205C50.8711 48.205 49.9947 48.5681 49.2792 49.2942C48.5631 50.0197 48.205 50.9011 48.205 51.9383C48.205 52.975 48.5681 53.8514 49.2942 54.5675C50.0197 55.2831 50.9011 55.6408 51.9383 55.6408ZM21.425 55.6408C22.4622 55.6408 23.3386 55.2781 24.0542 54.5525C24.7703 53.8264 25.1283 52.945 25.1283 51.9083C25.1283 50.8711 24.7653 49.9947 24.0392 49.2792C23.3136 48.5631 22.4322 48.205 21.395 48.205C20.3583 48.205 19.4819 48.5681 18.7658 49.2942C18.0503 50.0197 17.6925 50.9011 17.6925 51.9383C17.6925 52.975 18.0553 53.8514 18.7808 54.5675C19.5069 55.2831 20.3883 55.6408 21.425 55.6408ZM55.3583 36.6667C51.6622 36.6667 48.5203 35.3728 45.9325 32.785C43.3453 30.1978 42.0517 27.0392 42.0517 23.3092C42.0517 19.6242 43.3431 16.4847 45.9258 13.8908C48.5086 11.2969 51.6703 10 55.4108 10C59.1069 10 62.2489 11.2939 64.8367 13.8817C67.4244 16.4689 68.7183 19.6194 68.7183 23.3333C68.7183 27.0472 67.4156 30.1978 64.81 32.785C62.205 35.3728 59.0544 36.6667 55.3583 36.6667ZM55.385 25.385C55.7267 25.385 56.0256 25.2567 56.2817 25C56.5383 24.7433 56.6667 24.4442 56.6667 24.1025V16.6667C56.6667 16.325 56.5383 16.0258 56.2817 15.7692C56.0256 15.5131 55.7267 15.385 55.385 15.385C55.0428 15.385 54.7436 15.5131 54.4875 15.7692C54.2308 16.0258 54.1025 16.325 54.1025 16.6667V24.1025C54.1025 24.4442 54.2308 24.7433 54.4875 25C54.7436 25.2567 55.0428 25.385 55.385 25.385ZM55.385 31.5383C55.8294 31.5383 56.1861 31.3931 56.455 31.1025C56.7244 30.8119 56.8806 30.4658 56.9233 30.0642C56.9233 29.6369 56.7781 29.2631 56.4875 28.9425C56.1969 28.6219 55.8294 28.4617 55.385 28.4617C54.9406 28.4617 54.5728 28.6069 54.2817 28.8975C53.9911 29.1881 53.8458 29.5556 53.8458 30C53.8458 30.4444 53.9911 30.8119 54.2817 31.1025C54.5728 31.3931 54.9406 31.5383 55.385 31.5383Z" fill="white"/>
</g>
</svg>
