<svg width="80" height="80" viewBox="0 0 80 80" fill="none" xmlns="http://www.w3.org/2000/svg">
<mask id="mask0_39_27578" style="mask-type:alpha" maskUnits="userSpaceOnUse" x="0" y="0" width="80" height="80">
<rect width="80" height="80" fill="#D9D9D9"/>
</mask>
<g mask="url(#mask0_39_27578)">
<path d="M10.769 63.6544V67.9486C10.769 68.5186 10.569 69.003 10.169 69.4019C9.76845 69.8008 9.28206 70.0002 8.70984 70.0002C8.13817 70.0002 7.65484 69.8008 7.25984 69.4019C6.86428 69.003 6.6665 68.5186 6.6665 67.9486V44.9486C6.6665 44.4047 6.71262 43.8722 6.80484 43.3511C6.89706 42.8294 7.05817 42.3194 7.28817 41.8211L13.109 28.0836C13.4168 27.3158 13.9007 26.7061 14.5607 26.2544C15.2212 25.8027 15.9659 25.5769 16.7948 25.5769H44.2307C45.049 25.5769 45.799 25.8027 46.4807 26.2544C47.1623 26.7061 47.6623 27.3158 47.9807 28.0836L53.7373 41.8211C53.9673 42.3194 54.1285 42.8294 54.2207 43.3511C54.3129 43.8722 54.359 44.4047 54.359 44.9486V67.9486C54.359 68.5186 54.1587 69.003 53.7582 69.4019C53.3582 69.8008 52.8721 70.0002 52.2998 70.0002C51.7282 70.0002 51.2446 69.8008 50.849 69.4019C50.454 69.003 50.2565 68.5186 50.2565 67.9486V63.6544H10.769ZM11.5123 40.0644H49.4932L44.8207 28.9102H16.2048L11.5123 40.0644ZM9.99984 60.3211H51.0257V43.3977H9.99984V60.3211ZM18.5407 55.5769C19.5773 55.5769 20.4537 55.2297 21.1698 54.5352C21.8854 53.8408 22.2432 52.9688 22.2432 51.9194C22.2432 50.87 21.8804 49.978 21.1548 49.2436C20.4287 48.5086 19.5473 48.1411 18.5107 48.1411C17.4734 48.1411 16.5971 48.5086 15.8815 49.2436C15.1654 49.978 14.8073 50.87 14.8073 51.9194C14.8073 52.9688 15.1704 53.8408 15.8965 54.5352C16.6221 55.2297 17.5034 55.5769 18.5407 55.5769ZM42.5148 55.5769C43.5521 55.5769 44.4285 55.2297 45.144 54.5352C45.8601 53.8408 46.2182 52.9688 46.2182 51.9194C46.2182 50.87 45.8551 49.978 45.129 49.2436C44.4029 48.5086 43.5215 48.1411 42.4848 48.1411C41.4476 48.1411 40.5712 48.5086 39.8557 49.2436C39.1396 49.978 38.7815 50.87 38.7815 51.9194C38.7815 52.9688 39.1446 53.8408 39.8707 54.5352C40.5968 55.2297 41.4782 55.5769 42.5148 55.5769ZM53.7882 19.6794H24.6857C24.1301 19.6794 23.7134 19.5072 23.4357 19.1627C23.1579 18.8177 23.019 18.4383 23.019 18.0244C23.019 17.6111 23.1579 17.228 23.4357 16.8752C23.7134 16.5225 24.1301 16.3461 24.6857 16.3461H53.3332C54.1409 16.3461 54.8812 16.5705 55.554 17.0194C56.2273 17.4683 56.7157 18.0794 57.019 18.8527L62.7115 32.3336C62.9415 32.8325 63.1026 33.3425 63.1948 33.8636C63.2871 34.3852 63.3332 34.918 63.3332 35.4619V58.8461C63.3332 59.3183 63.1732 59.7141 62.8532 60.0336C62.5332 60.353 62.1368 60.5127 61.664 60.5127C61.1912 60.5127 60.7957 60.353 60.4773 60.0336C60.159 59.7141 59.9998 59.3183 59.9998 58.8461V34.5386L53.7882 19.6794ZM63.0832 10.4486H34.2373C33.6818 10.4486 33.2651 10.2763 32.9873 9.9319C32.7096 9.5869 32.5707 9.20746 32.5707 8.79357C32.5707 8.38024 32.7096 7.99718 32.9873 7.6444C33.2651 7.29162 33.6818 7.11523 34.2373 7.11523H62.6282C63.436 7.11523 64.1762 7.33968 64.849 7.78857C65.5223 8.23746 66.0107 8.84857 66.314 9.6219L71.9423 22.9102C72.1723 23.4091 72.3335 23.9191 72.4257 24.4402C72.5179 24.9619 72.564 25.4947 72.564 26.0386V49.3594C72.564 49.8316 72.404 50.2275 72.084 50.5469C71.764 50.8663 71.3676 51.0261 70.8948 51.0261C70.4221 51.0261 70.0265 50.8663 69.7082 50.5469C69.3898 50.2275 69.2307 49.8316 69.2307 49.3594V25.0519L63.0832 10.4486Z" fill="white"/>
</g>
</svg>
