<svg width="80" height="80" viewBox="0 0 80 80" fill="none" xmlns="http://www.w3.org/2000/svg">
<mask id="mask0_39_27584" style="mask-type:alpha" maskUnits="userSpaceOnUse" x="0" y="0" width="80" height="80">
<rect width="80" height="80" fill="#D9D9D9"/>
</mask>
<g mask="url(#mask0_39_27584)">
<path d="M61.2816 41.6665H53.8458C53.3735 41.6665 52.9777 41.5065 52.6583 41.1865C52.3388 40.8665 52.1791 40.4701 52.1791 39.9974C52.1791 39.5246 52.3388 39.129 52.6583 38.8107C52.9777 38.4924 53.3735 38.3332 53.8458 38.3332H61.2816C61.7538 38.3332 62.1497 38.4932 62.4691 38.8132C62.7885 39.1332 62.9483 39.5296 62.9483 40.0024C62.9483 40.4751 62.7885 40.8707 62.4691 41.189C62.1497 41.5074 61.7538 41.6665 61.2816 41.6665ZM48.2183 55.4232C48.5172 55.0299 48.8866 54.799 49.3266 54.7307C49.7672 54.6624 50.1838 54.7776 50.5766 55.0765L56.4874 59.5257C56.8802 59.8246 57.1108 60.1943 57.1791 60.6349C57.2474 61.0749 57.1322 61.4915 56.8333 61.8849C56.5344 62.2776 56.1646 62.5082 55.7241 62.5765C55.2841 62.6449 54.8674 62.5296 54.4741 62.2307L48.5641 57.7815C48.1708 57.4826 47.9399 57.1132 47.8716 56.6732C47.8033 56.2326 47.9188 55.816 48.2183 55.4232ZM56.2308 20.2182L50.3208 24.6665C49.9274 24.9654 49.5108 25.0807 49.0708 25.0124C48.6302 24.944 48.2605 24.7135 47.9616 24.3207C47.6621 23.9274 47.5466 23.5107 47.6149 23.0707C47.6838 22.6301 47.9146 22.2604 48.3074 21.9615L54.2183 17.5124C54.611 17.2135 55.0277 17.0982 55.4683 17.1665C55.9083 17.2349 56.2777 17.4657 56.5766 17.859C56.876 18.2518 56.9916 18.6685 56.9233 19.109C56.8549 19.549 56.6241 19.9188 56.2308 20.2182ZM25.1283 46.6665H16.4099C15.6472 46.6665 15.0077 46.4085 14.4916 45.8924C13.976 45.3763 13.7183 44.7368 13.7183 43.974V36.0257C13.7183 35.2629 13.976 34.6235 14.4916 34.1074C15.0077 33.5913 15.6472 33.3332 16.4099 33.3332H25.1283L34.0766 24.384C34.6194 23.8418 35.2508 23.7174 35.9708 24.0107C36.6913 24.304 37.0516 24.8282 37.0516 25.5832V54.4165C37.0516 55.1715 36.6913 55.6957 35.9708 55.989C35.2508 56.2824 34.6194 56.1579 34.0766 55.6157L25.1283 46.6665ZM33.7183 29.4999L26.5516 36.6665H17.0516V43.3332H26.5516L33.7183 50.4999V29.4999Z" fill="white"/>
</g>
</svg>
