<svg width="183" height="44" viewBox="0 0 183 44" fill="none" xmlns="http://www.w3.org/2000/svg">
<path d="M9.9881 15.4072C15.579 15.4073 19.9686 19.7241 19.9686 25.4941C19.9686 31.2641 15.576 35.5809 9.9881 35.581V35.5781C7.55148 35.5781 5.35675 34.691 3.64044 33.3603V42.5195C3.64044 42.5195 3.52197 43.2878 2.92267 43.4072C2.08422 43.2879 1.2066 42.6423 0.607234 41.7949C-0.113216 40.5834 0.00762479 38.8486 0.00762479 38.8486V25.4941C0.00765566 19.6843 4.36074 15.4072 9.9881 15.4072ZM53.0604 15.4072C56.5749 15.4072 60.0891 17.2217 61.6844 20.3301C62.0446 21.0551 62.1627 21.6606 61.6844 21.9023C60.8459 22.2661 59.0091 22.0248 58.0526 21.1777C57.1747 20.3333 55.9785 18.7177 53.3026 18.7177C50.6268 18.7178 48.4324 20.0912 47.4334 21.9052C47.0732 22.9149 47.1945 23.7627 48.6717 23.7627L58.4129 23.8818C62.7625 23.882 63.5218 27.7158 61.6844 30.7812C59.7289 33.8465 56.5746 35.7003 52.9422 35.581C49.5096 35.5809 45.9955 33.7239 44.2791 30.5361C44.04 30.0129 43.8009 29.0434 44.4002 28.8017C44.9996 28.557 46.955 28.6794 47.9539 29.7685C49.0315 30.9004 50.3877 32.2313 53.0633 32.2314C55.379 32.2314 57.9337 30.7808 58.6512 28.9238C59.0114 27.954 58.7728 27.431 57.535 27.3086H57.5321L49.0282 27.1894C42.9622 27.1892 42.8414 22.67 44.5184 19.9258C46.595 16.7381 49.988 15.4073 53.0604 15.4072ZM31.9862 15.4072C37.6165 15.4073 41.9666 19.7241 41.9666 25.4941C41.9666 31.2641 37.6135 35.5809 31.9862 35.581C26.3981 35.581 22.0057 31.304 22.0057 25.4941C22.0057 19.6843 26.3982 15.4072 31.9862 15.4072ZM74.2235 15.4072C78.8547 15.4074 82.7266 18.3533 83.9647 22.5078C84.2038 23.6367 83.8432 23.7596 83.2469 23.8789C82.6083 24.0012 81.652 23.8786 81.0526 23.5146C80.4179 23.1529 79.466 21.7974 79.4539 21.7802C78.3764 19.9233 76.421 18.8341 74.2235 18.834C70.709 18.834 67.7577 21.8994 67.7577 25.4912C67.7577 29.0829 70.7121 32.1084 74.2235 32.1084C76.6601 32.1082 78.6157 30.778 79.8114 28.8017C79.8114 28.8017 80.4105 27.7125 81.8875 27.3086C83.4859 26.9445 83.8436 27.4306 83.8436 27.4306C83.8547 27.4348 84.1961 27.5735 83.7225 28.8017H83.7254C82.2482 32.996 78.7366 35.5809 74.2235 35.581C68.6355 35.581 64.243 31.2642 64.243 25.4941C64.243 19.724 68.6355 15.4072 74.2235 15.4072ZM96.0213 15.4072C101.61 15.4072 106.002 19.7241 106.002 25.4941C106.002 31.2642 101.61 35.581 96.0213 35.581C90.3909 35.581 86.0409 31.304 86.0409 25.4941C86.0409 19.6843 90.3909 15.4072 96.0213 15.4072ZM9.9881 18.834C6.43731 18.834 3.52228 21.9392 3.52228 25.4912C3.52232 29.0432 6.4343 32.1084 9.9881 32.1084V32.1113C13.4995 32.1112 16.4149 29.2051 16.4149 25.4941C16.4149 21.7831 13.5025 18.837 9.9881 18.8369V18.834ZM31.9862 18.8369C28.4748 18.8369 25.5595 21.9421 25.5594 25.4941C25.5594 29.0461 28.4717 32.1113 31.9862 32.1113C35.5369 32.1112 38.452 29.0858 38.452 25.4941C38.452 21.9024 35.5399 18.837 31.9862 18.8369ZM96.0213 18.8369C92.4675 18.8369 89.5526 21.9421 89.5526 25.4941C89.5526 29.0461 92.4675 32.1113 96.0213 32.1113C99.5327 32.1113 102.448 29.0859 102.448 25.4941C102.448 21.9024 99.5357 18.8369 96.0213 18.8369ZM154.015 2.37989C155.29 2.37996 156.31 2.82213 157.058 3.70606C157.806 4.59 158.18 5.78012 158.18 7.29297V7.49707H151.702C151.719 8.38107 151.94 9.07869 152.365 9.55473C152.773 10.0305 153.368 10.2685 154.116 10.2685C154.643 10.2685 155.068 10.1494 155.408 9.89453C155.748 9.63953 156.003 9.23093 156.207 8.66993H158.061C157.84 9.62193 157.363 10.3704 156.649 10.8974C155.935 11.4414 155.068 11.6963 154.082 11.6963C152.756 11.6962 151.702 11.2708 150.92 10.4209C150.138 9.57093 149.765 8.46585 149.765 7.12305C149.765 5.7633 150.155 4.62454 150.954 3.72364C151.753 2.83964 152.774 2.37989 154.015 2.37989ZM144.672 2.37989C145.743 2.37989 146.627 2.61825 147.307 3.07715C147.987 3.55315 148.344 4.25055 148.344 5.18555H146.491C146.372 4.26755 145.743 3.79102 144.587 3.79102C144.077 3.79102 143.703 3.89348 143.431 4.06348C143.159 4.25046 143.023 4.50563 143.023 4.81153C143.023 4.91334 143.023 5.01508 143.04 5.08301C143.057 5.16801 143.091 5.23669 143.142 5.30469L143.313 5.49512C143.356 5.53257 143.423 5.56728 143.499 5.59278L143.737 5.71192C143.805 5.74586 143.907 5.78051 144.06 5.81446C144.196 5.84846 144.315 5.88242 144.4 5.89942C144.485 5.93335 144.622 5.96704 144.825 6.00098C145.012 6.03493 145.165 6.06893 145.267 6.08594C145.709 6.18792 146.015 6.27322 146.219 6.32422C146.423 6.37522 146.712 6.47691 147.086 6.62989C147.46 6.78286 147.749 6.93648 147.936 7.10645C148.106 7.27642 148.276 7.49721 148.429 7.78614C148.582 8.07514 148.667 8.39846 148.667 8.77246C148.667 9.65633 148.31 10.3699 147.63 10.8799C146.933 11.4069 145.998 11.6621 144.842 11.6621C143.584 11.6621 142.632 11.4068 141.969 10.8799C141.289 10.3699 140.932 9.60523 140.898 8.60254H142.751C142.853 9.70733 143.55 10.251 144.876 10.251C145.437 10.2509 145.896 10.1491 146.236 9.91113C146.576 9.67323 146.763 9.36728 146.763 8.97657C146.763 8.78963 146.712 8.61938 146.627 8.4834C146.542 8.34741 146.406 8.24555 146.219 8.14356C146.015 8.04159 145.828 7.97287 145.658 7.92188C145.488 7.87088 145.25 7.80335 144.961 7.73535L144.859 7.71778C144.825 7.71778 144.807 7.70118 144.773 7.70118C144.74 7.70102 144.706 7.68392 144.672 7.667C143.414 7.36101 142.632 7.12312 142.292 6.95313C141.476 6.57913 141.085 5.93323 141.085 5.03223C141.085 4.21623 141.391 3.56975 142.037 3.09375C142.666 2.61794 143.55 2.37989 144.672 2.37989ZM133.567 7.65039C133.567 7.95632 133.567 8.21147 133.584 8.39844C133.584 8.58538 133.619 8.78944 133.687 9.02735C133.755 9.26524 133.839 9.43573 133.958 9.55473C134.077 9.69053 134.247 9.79203 134.468 9.87693C134.689 9.97893 134.961 10.0136 135.284 10.0136C135.998 10.0136 136.542 9.75803 136.882 9.24805C137.222 8.73808 137.393 8.07531 137.393 7.27637V2.63477H139.33V11.4072H137.511V10.0986C136.763 11.1353 135.811 11.6455 134.621 11.6455C133.652 11.6455 132.905 11.373 132.395 10.8291C131.885 10.2851 131.629 9.48623 131.629 8.44922V2.63477H133.567V7.65039ZM161.591 7.65039C161.591 7.95632 161.59 8.21147 161.607 8.39844C161.607 8.58538 161.642 8.78944 161.71 9.02735C161.778 9.26524 161.863 9.43573 161.981 9.55473C162.1 9.69053 162.271 9.79203 162.491 9.87693C162.712 9.97893 162.985 10.0136 163.308 10.0136C164.022 10.0136 164.565 9.75803 164.905 9.24805C165.245 8.73808 165.416 8.07531 165.416 7.27637V2.63477H167.354V11.4072H165.534V10.0986C164.786 11.1353 163.834 11.6455 162.645 11.6455C161.676 11.6455 160.928 11.373 160.418 10.8291C159.908 10.2851 159.652 9.48623 159.652 8.44922V2.63477H161.591V7.65039ZM94.7782 2.36328C95.8659 2.36328 96.7504 2.58396 97.3963 3.00879C98.0423 3.45079 98.3827 4.11463 98.3827 5.01563V9.46873C98.3827 9.72373 98.3996 9.89453 98.4676 9.97953C98.5356 10.0813 98.6548 10.1152 98.8416 10.1152C98.9776 10.1152 99.114 10.115 99.284 10.081V11.4414C98.774 11.5774 98.3652 11.6279 98.0252 11.6279C97.1925 11.6278 96.7165 11.2881 96.5975 10.5742C95.8495 11.2882 94.8293 11.6279 93.5204 11.6279C92.6025 11.6279 91.8881 11.4076 91.3612 10.9316C90.8172 10.4556 90.5623 9.82573 90.5623 9.00977C90.5624 8.77204 90.5794 8.53425 90.6473 8.31348C90.6983 8.10948 90.7668 7.92196 90.8348 7.75196C90.9028 7.59917 91.0216 7.44639 91.1913 7.31055C91.3611 7.17469 91.4975 7.0726 91.5995 6.97071C91.7015 6.88571 91.8888 6.79985 92.1268 6.71485C92.3647 6.64687 92.5518 6.57891 92.6707 6.54493C92.7898 6.51093 92.9938 6.46015 93.2997 6.40918C93.5886 6.37518 93.7758 6.34122 93.8778 6.32422C93.9798 6.30721 94.1842 6.27324 94.4901 6.23926C95.1695 6.15434 95.6452 6.0865 95.9002 6.01856C96.1382 5.95056 96.309 5.8655 96.411 5.7295C96.4789 5.64451 96.5291 5.44035 96.5291 5.10059C96.5291 4.21659 95.9174 3.77442 94.7274 3.77442C94.0817 3.77444 93.6228 3.89306 93.3338 4.13086C93.0279 4.36882 92.8403 4.77705 92.7723 5.33789H90.9364C91.1405 3.36622 92.4156 2.36341 94.7782 2.36328ZM108.961 2.63477H110.729V4.0459H108.961V8.66993C108.961 8.94176 108.961 9.14599 108.978 9.24805C108.978 9.35005 109.012 9.46943 109.08 9.60543C109.131 9.74113 109.233 9.82633 109.368 9.86033C109.504 9.91133 109.709 9.92873 109.964 9.92873C110.27 9.92873 110.525 9.92853 110.729 9.89453V11.4238C110.338 11.4748 109.896 11.4922 109.42 11.4922C109.08 11.4922 108.774 11.4748 108.519 11.4238C108.264 11.3728 108.06 11.3053 107.89 11.2373C107.72 11.1693 107.567 11.0673 107.465 10.8974C107.346 10.7274 107.26 10.5912 107.192 10.4892C107.124 10.3872 107.091 10.183 107.057 9.91113C107.023 9.63923 107.023 9.43483 107.023 9.29883V4.0459H105.561V2.63477H107.023V0H108.961V2.63477ZM105.432 2.46485V4.31836C105.092 4.28439 104.854 4.26758 104.752 4.26758C103.052 4.26762 102.219 5.37214 102.219 7.54785V11.4072H100.298V2.63477H102.117V4.38575C102.729 3.09418 103.715 2.43179 105.058 2.43164L105.432 2.46485ZM126.731 2.39746C127.547 2.39752 128.244 2.65256 128.788 3.14551C129.332 3.63851 129.605 4.31859 129.605 5.18555V11.4072H127.666V6.01856C127.666 5.40663 127.547 4.91363 127.343 4.55664C127.122 4.21671 126.714 4.02937 126.103 4.0293C125.474 4.0293 124.997 4.23303 124.674 4.62403C124.334 5.01495 124.182 5.55908 124.182 6.25586V11.4072H122.243V5.91602C122.243 5.30412 122.141 4.82785 121.954 4.50489C121.767 4.19907 121.376 4.0293 120.798 4.0293C120.135 4.02938 119.642 4.24991 119.302 4.67481C118.962 5.09981 118.792 5.6614 118.792 6.3584V11.4072H116.855V2.63477H118.69V3.87598C119.404 2.89016 120.322 2.39746 121.444 2.39746C122.022 2.39749 122.516 2.53311 122.94 2.78809C123.365 3.06008 123.689 3.4176 123.893 3.89356C124.59 2.90756 125.541 2.39746 126.731 2.39746ZM179.309 2.39746C180.125 2.39752 180.821 2.65256 181.365 3.14551C181.909 3.63851 182.182 4.31859 182.182 5.18555V11.4072H180.243V6.01856C180.243 5.40663 180.124 4.91363 179.92 4.55664C179.699 4.21671 179.292 4.02937 178.68 4.0293C178.051 4.0293 177.574 4.23303 177.251 4.62403C176.911 5.01495 176.759 5.55908 176.759 6.25586V11.4072H174.82V5.91602C174.82 5.30412 174.718 4.82785 174.531 4.50489C174.344 4.19907 173.953 4.0293 173.375 4.0293C172.712 4.02938 172.219 4.24991 171.879 4.67481C171.539 5.09981 171.369 5.6614 171.369 6.3584V11.4072H169.432V2.63477H171.268V3.87598C171.982 2.89016 172.9 2.39746 174.022 2.39746C174.599 2.39749 175.093 2.53311 175.518 2.78809C175.943 3.06008 176.266 3.4176 176.47 3.89356C177.167 2.90756 178.119 2.39746 179.309 2.39746ZM96.5125 7.00391C96.3596 7.0889 96.1898 7.15759 96.0028 7.22559C95.7988 7.29359 95.6452 7.32675 95.5262 7.34375C95.4072 7.36074 95.2204 7.37815 94.9657 7.41211C94.7107 7.44611 94.5405 7.48047 94.4725 7.48047C94.2348 7.51443 94.0479 7.54807 93.912 7.58203C93.776 7.61603 93.6052 7.64978 93.4012 7.71778C93.1973 7.78576 93.0442 7.87167 92.9422 7.97364C92.8404 8.07554 92.7387 8.19449 92.6707 8.36426C92.5857 8.53426 92.5516 8.72139 92.5516 8.94239C92.5516 9.36731 92.6878 9.69013 92.9598 9.91113C93.2318 10.1491 93.6227 10.251 94.1327 10.251C94.9826 10.2509 95.6459 10.0306 96.1219 9.55473C96.3769 9.29969 96.5125 8.78902 96.5125 8.04102V7.00391ZM153.997 3.8252C153.351 3.82525 152.841 4.02956 152.45 4.4375C152.059 4.84547 151.821 5.44028 151.736 6.20508H156.241C156.173 5.47418 155.952 4.89665 155.544 4.47168C155.136 4.04668 154.626 3.8252 153.997 3.8252Z" fill="black"/>
</svg>
