<svg width="292" height="32" viewBox="0 0 292 32" fill="none" xmlns="http://www.w3.org/2000/svg">
<g clip-path="url(#clip0_15_356)">
<path d="M69.7674 21.6532C67.176 24.1774 64.1196 24.6902 60.3189 24.6902H27.7608C25.1694 24.6902 22.8704 22.6129 21.794 19.7074H13.3289C14.8704 26.7542 20.7441 31.9999 27.7475 31.9999H60.3056C64.9302 31.9999 70.8837 31.382 75.8139 26.5833L81.1428 21.3902L75.5747 15.9736C72.3986 19.0632 69.7541 21.6532 69.7541 21.6532H69.7674Z" fill="#C7C7C7"/>
<path d="M27.7742 7.40158H48.9968C49.9403 7.40158 50.9768 8.42705 50.9768 9.89952C50.9768 11.372 49.927 12.3975 48.9968 12.3975H21.8074C21.3954 13.515 21.1562 14.7508 21.1562 16.0524C21.1562 17.3539 21.3954 18.5897 21.8074 19.7072H48.9968C54.618 19.7072 59.1895 15.303 59.1895 9.89952C59.1895 4.49607 54.6047 0.0917969 48.9968 0.0917969H27.7742C20.7709 0.0917969 14.8838 5.35063 13.3423 12.3975H21.8074C22.8838 9.47882 25.1828 7.41472 27.7742 7.41472V7.40158Z" fill="#C7C7C7"/>
<path d="M21.1562 16.0523C21.1562 14.7508 21.3954 13.515 21.8074 12.3975H13.3423C13.0898 13.5807 12.9436 14.7902 12.9436 16.0523C12.9436 17.3145 13.0898 18.5371 13.3423 19.7072H21.8074C21.3954 18.5897 21.1562 17.3539 21.1562 16.0523Z" fill="#C7C7C7"/>
<path d="M13.3422 12.3975H4.10631C1.83389 12.3975 0 14.0408 0 16.0523C0 18.0639 1.83389 19.7072 4.10631 19.7072H13.3422C13.0897 18.524 12.9435 17.3145 12.9435 16.0523C12.9435 14.7902 13.0897 13.5676 13.3422 12.3975Z" fill="#C7C7C7"/>
<path d="M92.4252 10.4386C95.0166 7.91431 98.0731 7.40157 101.874 7.40157H104.571C106.844 7.40157 108.678 5.77134 108.678 3.74669C108.678 1.72204 106.844 0.0917969 104.571 0.0917969H101.874C97.2359 0.0917969 91.2957 0.709709 86.3654 5.50839C86.3654 5.50839 84.0532 7.75655 81.1694 10.57L86.7375 15.9866L92.4385 10.4386H92.4252Z" fill="#C7C7C7"/>
<path d="M75.2956 4.87713C72.9568 2.58954 70.0199 0.840973 66.7906 0.209913C64.5847 -0.22394 62.3388 0.801532 61.7408 2.7473C61.1295 4.69307 62.4053 6.70457 64.598 7.2436C66.4451 7.70375 67.9202 8.51887 69.2491 9.80728L75.6146 15.9864C77.4219 14.2247 79.4152 12.2921 81.1827 10.5698L75.3222 4.87713H75.2956Z" fill="#C7C7C7"/>
<path d="M104.625 24.6244H101.914C98.1131 24.6244 95.0566 24.1117 92.4652 21.5874L86.7244 15.9736L81.1562 21.3902L86.4054 26.5176C91.3356 31.3163 97.2759 31.9342 101.914 31.9342H104.625C106.897 31.9342 108.731 30.304 108.731 28.2793C108.731 26.2547 106.897 24.6244 104.625 24.6244Z" fill="#C7C7C7"/>
<path d="M81.156 10.5698C79.3886 12.2921 77.4085 14.2247 75.5879 15.9864L81.156 21.403L86.7241 15.9864L81.156 10.5698Z" fill="#C7C7C7"/>
<path d="M288.491 1.03857H284.279V30.6984H288.491V12.9893H292V10.1101H288.491V1.03857Z" fill="#C7C7C7"/>
<path d="M275.402 7.40193V1.27539H271.189V7.40193C271.189 12.411 269.169 16.5654 264.452 19.4841L266.299 21.8506C269.422 20.2335 271.761 17.775 273.302 15.1061C274.83 17.7618 277.169 20.2203 280.292 21.8506L282.153 19.4841C277.422 16.5654 275.402 12.411 275.402 7.40193Z" fill="#C7C7C7"/>
<path d="M148.771 8.8085V1.03857H144.558V22.6392H148.771V11.6877H152.279V8.8085H148.771Z" fill="#C7C7C7"/>
<path d="M140.811 10.9121C140.811 8.65078 139.734 6.74445 138.047 5.50863H140.997V2.62942H135.096V0H130.884V2.62942H124.983V5.50863H128.04C126.352 6.7576 125.276 8.65078 125.276 10.9121C125.276 14.9877 128.757 18.2876 133.05 18.2876C137.342 18.2876 140.824 14.9877 140.824 10.9121H140.811ZM129.488 10.9121C129.488 8.37469 131.083 6.32375 133.037 6.32375C134.99 6.32375 136.585 8.37469 136.585 10.9121C136.585 13.4495 134.99 15.5004 133.037 15.5004C131.083 15.5004 129.488 13.4495 129.488 10.9121Z" fill="#C7C7C7"/>
<path d="M148.997 30.6064V27.7272H133.196V21.2852H128.983V28.1479C128.983 29.4232 129.993 30.6064 131.628 30.6064H148.997Z" fill="#C7C7C7"/>
<path d="M185.582 1.43311V14.4882C185.582 15.7634 186.605 16.9467 188.239 16.9467H193.661V25.6237H184.04V28.5029H207.495V25.6237H197.874V16.9467H205.462V14.0675H189.794V4.31232H205.462V1.43311H185.582Z" fill="#C7C7C7"/>
<path d="M169.249 19.5366V14.5539H179.309V11.6747H177.183V3.89161C177.183 2.61634 176.16 1.43311 174.525 1.43311H156.439V4.31232H172.957V11.6878H154.95V14.567H165.01V19.5498H156.425V22.429H172.944V30.6985H177.156V19.5366H169.209H169.249Z" fill="#C7C7C7"/>
<path d="M212.691 16.2499C212.691 17.5251 213.714 18.7084 215.336 18.7084H220.97V25.6369H211.123V28.5161H235.017V25.6369H225.183V18.7084H232.997V15.8292H216.891V11.7141H232.997V3.89161C232.997 2.61634 231.974 1.43311 230.339 1.43311H212.665V4.31232H228.771V8.83491H212.665V16.2499H212.691Z" fill="#C7C7C7"/>
<path d="M240.106 1.43311V4.31232H256.412V13.7782H250.525V8.17756H246.312V13.7782H237.967V16.6574H263.203V13.7782H260.638V3.89161C260.638 2.61634 259.615 1.43311 257.98 1.43311H240.106Z" fill="#C7C7C7"/>
<path d="M250.445 18.2222C245.462 18.2222 241.422 21.2854 241.422 25.0718C241.422 28.8582 245.462 31.9214 250.445 31.9214C255.429 31.9214 259.468 28.8582 259.468 25.0718C259.468 21.2854 255.429 18.2222 250.445 18.2222ZM250.445 29.108C247.787 29.108 245.634 27.2937 245.634 25.0718C245.634 22.8499 247.787 21.0356 250.445 21.0356C253.103 21.0356 255.256 22.8499 255.256 25.0718C255.256 27.2937 253.103 29.108 250.445 29.108Z" fill="#C7C7C7"/>
</g>
<defs>
<clipPath id="clip0_15_356">
<rect width="292" height="32" fill="white"/>
</clipPath>
</defs>
</svg>
