<svg width="102" height="58" viewBox="0 0 102 58" fill="none" xmlns="http://www.w3.org/2000/svg">
<g clip-path="url(#clip0_8_61)">
<path d="M100.061 40.7351H97.7344V57.3232H100.061V47.4169H102V45.8063H100.061V40.7351Z" fill="#00238E"/>
<path d="M92.824 44.2938V40.869H90.4969V44.2938C90.4969 47.0944 89.3842 49.4227 86.7773 51.0481L87.7979 52.3691C89.5256 51.4605 90.8186 50.089 91.662 48.6001C92.5065 50.089 93.8005 51.4605 95.5251 52.3691L96.5488 51.0481C93.943 49.4227 92.824 47.0944 92.824 44.2938Z" fill="#00238E"/>
<path d="M22.8936 45.0828V40.7345H20.5645V52.8149H22.8936V46.6934H24.8257V45.0828H22.8936Z" fill="#00238E"/>
<path d="M12.2441 46.259C12.2441 44.8424 13.1222 43.6966 14.2066 43.6966C15.291 43.6966 16.1712 44.8424 16.1712 46.259C16.1712 47.6787 15.291 48.8224 14.2066 48.8224C13.1222 48.8224 12.2441 47.6787 12.2441 46.259ZM18.5003 46.259C18.5003 44.9956 17.9042 43.9327 16.9737 43.237H18.5999V41.6253H15.3445V40.1542H13.0132V41.6253H9.75781V43.237H11.4416C10.5091 43.9327 9.91498 44.9956 9.91498 46.259C9.91498 48.5401 11.8366 50.3848 14.2066 50.3848C16.5766 50.3848 18.5003 48.5401 18.5003 46.259Z" fill="#00238E"/>
<path d="M23.0149 57.2705V55.6599H14.2891V52.0577H11.96V55.8959C11.96 56.6084 12.5205 57.2705 13.4237 57.2705H23.0149Z" fill="#00238E"/>
<path d="M43.2191 40.9594V42.5679V48.2288V48.2592C43.2191 48.9707 43.7817 49.6338 44.6839 49.6338H47.6763V54.4899H42.3662V56.0974H55.3176V54.4899H50.0033V49.6338H54.1986V48.0232H45.5504V42.5679H54.1986V40.9594H43.2191Z" fill="#00238E"/>
<path d="M34.1997 51.0835V48.2987H39.7602V46.689H38.5888V42.3345C38.5888 41.6231 38.024 40.9599 37.124 40.9599H36.2585H27.1336V42.5685H36.2585V46.689H26.3174V48.2987H31.8726V51.0835H27.1336V52.692H36.2585V57.3225H38.5888V51.0835H34.1997Z" fill="#00238E"/>
<path d="M58.1968 49.2409C58.1968 49.9555 58.7615 50.6186 59.6636 50.6186H62.7765V54.4894H57.3418V56.0969H70.5404V54.4894H65.1057V50.6186H69.4193V49.0048H60.5259V46.7037H69.4193V42.3345C69.4193 41.6231 68.8567 40.9589 67.9546 40.9589H58.1968V42.5685H67.0923V45.0931H58.1968V49.2409Z" fill="#00238E"/>
<path d="M73.3375 40.9592V42.5678H82.342V47.8593H79.0939V44.7293H76.7647V47.8593H72.1504V49.47H86.0888V47.8593H84.668V42.5678V42.3348C84.668 41.6234 84.1053 40.9592 83.2032 40.9592H73.3375Z" fill="#00238E"/>
<path d="M79.0429 56.4303C77.576 56.4303 76.3868 55.4156 76.3868 54.1701C76.3868 52.9225 77.576 51.9152 79.0429 51.9152C80.5118 51.9152 81.6989 52.9225 81.6989 54.1701C81.6989 55.4156 80.5118 56.4303 79.0429 56.4303ZM79.0429 50.3434C76.2904 50.3434 74.0576 52.0579 74.0576 54.1701C74.0576 56.2844 76.2904 58 79.0429 58C81.7974 58 84.0302 56.2844 84.0302 54.1701C84.0302 52.0579 81.7974 50.3434 79.0429 50.3434Z" fill="#00238E"/>
<path d="M64.2417 20.0991C61.8579 22.4486 59.041 22.9292 55.5435 22.9292H25.5679C23.1827 22.9292 21.0649 20.9989 20.0751 18.2799H12.2871C13.7046 24.8424 19.1192 29.7438 25.5679 29.7438H55.5435C59.8078 29.7438 65.2837 29.1704 69.8206 24.6974L74.7278 19.8614L69.6041 14.8125C66.6777 17.6974 64.2417 20.0991 64.2417 20.0991Z" fill="#EB2333"/>
<path d="M25.5679 6.8146H45.1069C45.9702 6.8146 46.93 7.76796 46.93 9.13794C46.93 10.5092 45.9702 11.4652 45.1069 11.4652H20.0751C19.6956 12.5061 19.4817 13.6631 19.4817 14.8725C19.4817 16.0818 19.6956 17.2376 20.0751 18.2798H45.1069C50.2815 18.2798 54.4911 14.179 54.4911 9.13794C54.4911 4.09946 50.2815 0 45.1069 0H25.5679C19.1192 0 13.7046 4.90134 12.2871 11.4652H20.0751C21.0649 8.74483 23.1827 6.8146 25.5679 6.8146Z" fill="#EB2333"/>
<path d="M19.4807 14.8724C19.4807 13.663 19.6958 12.5073 20.0753 11.4651H12.2873C12.05 12.5608 11.9209 13.6996 11.9209 14.8724C11.9209 16.0452 12.05 17.184 12.2873 18.2797H20.0753C19.6958 17.2375 19.4807 16.0817 19.4807 14.8724Z" fill="#85353A"/>
<path d="M12.2871 11.4651H3.78053C1.69139 11.4651 0 12.9905 0 14.8724C0 16.7543 1.69139 18.2797 3.78053 18.2797H12.2871C12.0497 17.184 11.9206 16.0452 11.9206 14.8724C11.9206 13.6996 12.0497 12.5595 12.2871 11.4651Z" fill="#EB2333"/>
<path d="M85.0924 9.64465C87.4749 7.2965 90.2931 6.8146 93.7906 6.8146H96.2801C98.3679 6.8146 100.059 5.28922 100.059 3.4073C100.059 1.52538 98.3679 0 96.2801 0H93.7906C89.5263 0 84.0504 0.573319 79.5122 5.04631C79.5122 5.04631 77.3892 7.13979 74.7275 9.7635L79.8487 14.8124" fill="#EB2333"/>
<path d="M69.3299 4.45742C67.1691 2.32867 64.4762 0.700118 61.4937 0.101978C59.4594 -0.306794 57.3989 0.659629 56.8395 2.47233C56.28 4.28502 57.4563 6.16303 59.4685 6.66713C61.1677 7.09288 62.5292 7.85166 63.7498 9.05577L69.6051 14.8125C71.273 13.1683 73.1 11.3674 74.7275 9.76361" fill="#007DC2"/>
<path d="M96.3257 22.8704H93.8362C90.3387 22.8704 87.5219 22.3885 85.138 20.0403L79.8487 14.8125L74.7275 19.8614L79.5592 24.6387C84.0961 29.1104 89.5732 29.685 93.8362 29.685H96.3257C98.4136 29.685 100.106 28.1583 100.106 26.2777C100.106 24.3958 98.4136 22.8704 96.3257 22.8704Z" fill="#007DC2"/>
<path d="M74.7282 9.76343C73.1007 11.3672 71.2737 13.1681 69.6045 14.8123L74.7282 19.8613L79.8494 14.8123" fill="#283A8C"/>
</g>
<defs>
<clipPath id="clip0_8_61">
<rect width="102" height="58" fill="white"/>
</clipPath>
</defs>
</svg>
