<svg width="128" height="128" viewBox="0 0 128 128" fill="none" xmlns="http://www.w3.org/2000/svg">
<path d="M128 77.2793H118.866V86.362H128V77.2793Z" fill="#3B2714"/>
<path d="M128 68.2119H118.866V77.2774H128V68.2119Z" fill="#3B2714"/>
<path d="M128 59.1475H118.866V68.2129H128V59.1475Z" fill="#3B2714"/>
<path d="M128 50.082H118.866V59.1475H128V50.082Z" fill="#3B2714"/>
<path d="M128 40.998H118.866V50.0807H128V40.998Z" fill="#3B2714"/>
<path d="M118.866 86.3604H109.749V95.4258H118.866V86.3604Z" fill="#3B2714"/>
<path d="M118.866 77.2793H109.749V86.362H118.866V77.2793Z" fill="white"/>
<path d="M118.866 68.2119H109.749V77.2774H118.866V68.2119Z" fill="#3B2714"/>
<path d="M118.866 59.1475H109.749V68.2129H118.866V59.1475Z" fill="#3B2714"/>
<path d="M118.866 50.082H109.749V59.1475H118.866V50.082Z" fill="white"/>
<path d="M118.866 40.998H109.749V50.0807H118.866V40.998Z" fill="white"/>
<path d="M118.866 31.9336H109.749V40.999H118.866V31.9336Z" fill="#3B2714"/>
<path d="M109.748 95.4258H100.613V104.491H109.748V95.4258Z" fill="#3B2714"/>
<path d="M109.748 86.3604H100.613V95.4258H109.748V86.3604Z" fill="#3B2714"/>
<path d="M109.748 77.2793H100.613V86.362H109.748V77.2793Z" fill="#3B2714"/>
<path d="M109.748 68.2119H100.613V77.2774H109.748V68.2119Z" fill="#3B2714"/>
<path d="M109.748 59.1475H100.613V68.2129H109.748V59.1475Z" fill="#3B2714"/>
<path d="M109.748 50.082H100.613V59.1475H109.748V50.082Z" fill="white"/>
<path d="M109.748 40.998H100.613V50.0807H109.748V40.998Z" fill="white"/>
<path d="M109.748 31.9336H100.613V40.999H109.748V31.9336Z" fill="#C7C7C7"/>
<path d="M109.748 22.8682H100.613V31.9336H109.748V22.8682Z" fill="#3B2714"/>
<path d="M100.614 95.4258H91.4795V104.491H100.614V95.4258Z" fill="#3B2714"/>
<path d="M100.614 86.3604H91.4795V95.4258H100.614V86.3604Z" fill="#3B2714"/>
<path d="M100.614 77.2793H91.4795V86.362H100.614V77.2793Z" fill="#3B2714"/>
<path d="M100.614 68.2119H91.4795V77.2774H100.614V68.2119Z" fill="#3B2714"/>
<path d="M100.614 59.1475H91.4795V68.2129H100.614V59.1475Z" fill="white"/>
<path d="M100.614 50.082H91.4795V59.1475H100.614V50.082Z" fill="white"/>
<path d="M100.614 40.998H91.4795V50.0807H100.614V40.998Z" fill="#C7C7C7"/>
<path d="M100.614 31.9336H91.4795V40.999H100.614V31.9336Z" fill="#C7C7C7"/>
<path d="M100.614 22.8682H91.4795V31.9336H100.614V22.8682Z" fill="#3B2714"/>
<path d="M91.4796 86.3604H82.3452V95.4258H91.4796V86.3604Z" fill="#3B2714"/>
<path d="M91.4796 77.2793H82.3452V86.362H91.4796V77.2793Z" fill="#C7C7C7"/>
<path d="M91.4796 68.2119H82.3452V77.2774H91.4796V68.2119Z" fill="#C7C7C7"/>
<path d="M91.4796 59.1475H82.3452V68.2129H91.4796V59.1475Z" fill="#C7C7C7"/>
<path d="M91.4796 50.082H82.3452V59.1475H91.4796V50.082Z" fill="#C7C7C7"/>
<path d="M91.4796 40.998H82.3452V50.0807H91.4796V40.998Z" fill="#C7C7C7"/>
<path d="M91.4796 31.9336H82.3452V40.999H91.4796V31.9336Z" fill="#3B2714"/>
<path d="M82.3448 77.2793H73.2104V86.362H82.3448V77.2793Z" fill="#3B2714"/>
<path d="M82.3448 68.2119H73.2104V77.2774H82.3448V68.2119Z" fill="#3B2714"/>
<path d="M82.3448 59.1475H73.2104V68.2129H82.3448V59.1475Z" fill="#3B2714"/>
<path d="M82.3448 50.082H73.2104V59.1475H82.3448V50.082Z" fill="#3B2714"/>
<path d="M82.3448 40.998H73.2104V50.0807H82.3448V40.998Z" fill="#3B2714"/>
<path d="M54.9596 77.2793H45.8252V86.362H54.9596V77.2793Z" fill="#3B2714"/>
<path d="M54.9596 68.2119H45.8252V77.2774H54.9596V68.2119Z" fill="#3B2714"/>
<path d="M54.9596 59.1475H45.8252V68.2129H54.9596V59.1475Z" fill="#3B2714"/>
<path d="M54.9596 50.082H45.8252V59.1475H54.9596V50.082Z" fill="#3B2714"/>
<path d="M54.9596 40.998H45.8252V50.0807H54.9596V40.998Z" fill="#3B2714"/>
<path d="M45.8248 86.3604H36.6904V95.4258H45.8248V86.3604Z" fill="#3B2714"/>
<path d="M45.8248 77.2793H36.6904V86.362H45.8248V77.2793Z" fill="white"/>
<path d="M45.8248 68.2119H36.6904V77.2774H45.8248V68.2119Z" fill="#3B2714"/>
<path d="M45.8248 59.1475H36.6904V68.2129H45.8248V59.1475Z" fill="#3B2714"/>
<path d="M45.8248 50.082H36.6904V59.1475H45.8248V50.082Z" fill="white"/>
<path d="M45.8248 40.998H36.6904V50.0807H45.8248V40.998Z" fill="white"/>
<path d="M45.8248 31.9336H36.6904V40.999H45.8248V31.9336Z" fill="#3B2714"/>
<path d="M36.6905 95.4258H27.5562V104.491H36.6905V95.4258Z" fill="#3B2714"/>
<path d="M36.6905 86.3604H27.5562V95.4258H36.6905V86.3604Z" fill="#3B2714"/>
<path d="M36.6905 77.2793H27.5562V86.362H36.6905V77.2793Z" fill="#3B2714"/>
<path d="M36.6905 68.2119H27.5562V77.2774H36.6905V68.2119Z" fill="#3B2714"/>
<path d="M36.6905 59.1475H27.5562V68.2129H36.6905V59.1475Z" fill="#3B2714"/>
<path d="M36.6905 50.082H27.5562V59.1475H36.6905V50.082Z" fill="white"/>
<path d="M36.6905 40.998H27.5562V50.0807H36.6905V40.998Z" fill="white"/>
<path d="M36.6905 31.9336H27.5562V40.999H36.6905V31.9336Z" fill="#C7C7C7"/>
<path d="M36.6905 22.8682H27.5562V31.9336H36.6905V22.8682Z" fill="#3B2714"/>
<path d="M27.5561 95.4258H18.439V104.491H27.5561V95.4258Z" fill="#3B2714"/>
<path d="M27.5561 86.3604H18.439V95.4258H27.5561V86.3604Z" fill="#3B2714"/>
<path d="M27.5561 77.2793H18.439V86.362H27.5561V77.2793Z" fill="#3B2714"/>
<path d="M27.5561 68.2119H18.439V77.2774H27.5561V68.2119Z" fill="#3B2714"/>
<path d="M27.5561 59.1475H18.439V68.2129H27.5561V59.1475Z" fill="white"/>
<path d="M27.5561 50.082H18.439V59.1475H27.5561V50.082Z" fill="white"/>
<path d="M27.5561 40.998H18.439V50.0807H27.5561V40.998Z" fill="#C7C7C7"/>
<path d="M27.5561 31.9336H18.439V40.999H27.5561V31.9336Z" fill="#C7C7C7"/>
<path d="M27.5561 22.8682H18.439V31.9336H27.5561V22.8682Z" fill="#3B2714"/>
<path d="M18.4386 86.3604H9.3042V95.4258H18.4386V86.3604Z" fill="#3B2714"/>
<path d="M18.4386 77.2793H9.3042V86.362H18.4386V77.2793Z" fill="#C7C7C7"/>
<path d="M18.4386 68.2119H9.3042V77.2774H18.4386V68.2119Z" fill="#C7C7C7"/>
<path d="M18.4386 59.1475H9.3042V68.2129H18.4386V59.1475Z" fill="#C7C7C7"/>
<path d="M18.4386 50.082H9.3042V59.1475H18.4386V50.082Z" fill="#C7C7C7"/>
<path d="M18.4386 40.998H9.3042V50.0807H18.4386V40.998Z" fill="#C7C7C7"/>
<path d="M18.4386 31.9336H9.3042V40.999H18.4386V31.9336Z" fill="#3B2714"/>
<path d="M9.30431 77.2793H0.169922V86.362H9.30431V77.2793Z" fill="#3B2714"/>
<path d="M9.30431 68.2119H0.169922V77.2774H9.30431V68.2119Z" fill="#3B2714"/>
<path d="M9.30431 59.1475H0.169922V68.2129H9.30431V59.1475Z" fill="#3B2714"/>
<path d="M9.30431 50.082H0.169922V59.1475H9.30431V50.082Z" fill="#3B2714"/>
<path d="M9.30431 40.998H0.169922V50.0807H9.30431V40.998Z" fill="#3B2714"/>
</svg>
